<svg width="1200" height="120" viewBox="0 0 1200 120" fill="none" xmlns="http://www.w3.org/2000/svg">
<rect width="1200" height="120" fill="white" fill-opacity="0.9"/>
<rect x="525" y="36" width="46" height="48" fill="#81B3D2"/>
<rect x="577" y="36" width="46" height="48" fill="#81B3D2"/>
<rect x="629" y="36" width="46" height="48" fill="#81B3D2"/>
<path d="M606 53V49H602C599.791 49 598 50.7909 598 53V57H594V61H598V71H602V61H606V57H602V53H606Z" fill="white"/>
<path d="M550.95 53.1441C552.635 52.6481 553.934 53.4141 554.527 54.3231C555.2 54.0921 555.858 53.8421 556.538 53.6151C556.525 54.3015 556.212 54.9476 555.681 55.3831C556.366 55.5531 556.985 54.8921 556.985 54.8921C556.816 55.8921 555.979 56.6801 555.422 56.9161C555.191 63.6661 552.247 68.1331 545.345 67.9981H544.899C544.489 67.9981 540.735 67.5381 540.001 66.1111C542.272 66.3071 543.894 65.6891 544.694 64.9341C543.734 64.6341 542.015 64.4571 541.715 61.9841C542.064 62.0901 542.279 62.2121 542.905 62.1031C541.705 61.2471 540.374 60.5301 540.448 58.3301C540.733 58.6581 541.515 58.8661 541.788 58.8021C541.085 58.5611 539.818 55.4421 540.894 53.8501C542.712 55.7041 544.629 57.4561 548.046 57.6231C548.254 55.3301 549.183 53.7931 550.95 53.1441Z" fill="white"/>
<path fill-rule="evenodd" clip-rule="evenodd" d="M645 52H659C660.65 52 662 53.35 662 55V65C662 66.65 660.65 68 659 68H645C643.35 68 642 66.65 642 65V55C642 53.35 643.35 52 645 52ZM648.027 56.002V63.998L657.014 60L648.027 56.002Z" fill="white"/>
<path d="M136.573 65.862H132.289V78H129.412V65.862H125.107V63.3H136.573V65.862ZM138.072 63.3H146.787V65.862H140.949V69.285H146.262V71.847H140.949V75.438H146.892V78H138.072V63.3ZM156.729 65.862H153.6C153.544 67.192 153.481 68.403 153.411 69.495C153.341 70.587 153.243 71.574 153.117 72.456C153.005 73.324 152.851 74.094 152.655 74.766C152.459 75.438 152.207 76.019 151.899 76.509C151.703 76.831 151.479 77.097 151.227 77.307C150.989 77.517 150.737 77.685 150.471 77.811C150.205 77.937 149.939 78.021 149.673 78.063C149.421 78.119 149.183 78.147 148.959 78.147C148.637 78.147 148.364 78.119 148.14 78.063C147.93 78.021 147.72 77.951 147.51 77.853L147.825 75.375C147.909 75.403 147.993 75.424 148.077 75.438C148.161 75.452 148.245 75.459 148.329 75.459C148.553 75.459 148.77 75.403 148.98 75.291C149.204 75.179 149.393 74.99 149.547 74.724C149.757 74.416 149.939 73.968 150.093 73.38C150.247 72.778 150.38 72.015 150.492 71.091C150.618 70.167 150.716 69.068 150.786 67.794C150.856 66.506 150.905 65.008 150.933 63.3H159.606V78H156.729V65.862ZM162.82 69.012C162.82 68.522 162.974 68.137 163.282 67.857C163.59 67.563 163.996 67.416 164.5 67.416C165.032 67.416 165.452 67.563 165.76 67.857C166.068 68.137 166.222 68.522 166.222 69.012C166.222 69.502 166.068 69.894 165.76 70.188C165.452 70.482 165.032 70.629 164.5 70.629C163.996 70.629 163.59 70.482 163.282 70.188C162.974 69.894 162.82 69.502 162.82 69.012ZM162.82 76.614C162.82 76.124 162.974 75.739 163.282 75.459C163.59 75.165 163.996 75.018 164.5 75.018C165.032 75.018 165.452 75.165 165.76 75.459C166.068 75.739 166.222 76.124 166.222 76.614C166.222 77.104 166.068 77.496 165.76 77.79C165.452 78.084 165.032 78.231 164.5 78.231C163.996 78.231 163.59 78.084 163.282 77.79C162.974 77.496 162.82 77.104 162.82 76.614ZM172.721 69.726H176.123V66.177H178.58V69.726H182.003V72.078H178.58V75.669H176.123V72.078H172.721V69.726ZM185.077 78L189.886 66.681L190.81 65.652L189.55 65.862H184.153V63.3H193.624V64.098L187.744 78H185.077ZM199.575 82.62C198.931 81.948 198.385 81.206 197.937 80.394C197.489 79.596 197.125 78.777 196.845 77.937C196.579 77.083 196.383 76.229 196.257 75.375C196.131 74.507 196.068 73.681 196.068 72.897C196.068 72.127 196.131 71.315 196.257 70.461C196.383 69.607 196.586 68.753 196.866 67.899C197.146 67.031 197.51 66.184 197.958 65.358C198.42 64.532 198.98 63.762 199.638 63.048L201.402 64.182C200.912 64.84 200.499 65.526 200.163 66.24C199.841 66.954 199.575 67.689 199.365 68.445C199.169 69.187 199.022 69.936 198.924 70.692C198.84 71.448 198.798 72.183 198.798 72.897C198.798 73.569 198.847 74.283 198.945 75.039C199.043 75.795 199.197 76.551 199.407 77.307C199.617 78.049 199.89 78.777 200.226 79.491C200.562 80.205 200.968 80.856 201.444 81.444L199.575 82.62ZM213.291 73.905H210.981V78H208.44V73.905H202.077V72.351L208.734 63.195H210.981V71.721H213.291V73.905ZM208.44 68.508L208.629 66.744H208.545L207.831 68.256L205.647 71.091L204.597 71.889L205.941 71.721H208.44V68.508ZM214.538 67.899C214.538 67.185 214.643 66.527 214.853 65.925C215.077 65.323 215.392 64.812 215.798 64.392C216.218 63.958 216.722 63.622 217.31 63.384C217.912 63.132 218.598 63.006 219.368 63.006C220.95 63.006 222.189 63.482 223.085 64.434C223.995 65.372 224.45 66.744 224.45 68.55C224.45 70.174 224.24 71.581 223.82 72.771C223.414 73.947 222.861 74.934 222.161 75.732C221.475 76.516 220.677 77.118 219.767 77.538C218.857 77.958 217.898 78.21 216.89 78.294L216.302 76.152C217.072 76.054 217.758 75.865 218.36 75.585C218.962 75.305 219.48 74.962 219.914 74.556C220.348 74.136 220.698 73.667 220.964 73.149C221.244 72.617 221.44 72.05 221.552 71.448C221.216 71.812 220.852 72.064 220.46 72.204C220.082 72.344 219.571 72.414 218.927 72.414C218.395 72.414 217.863 72.323 217.331 72.141C216.813 71.959 216.344 71.686 215.924 71.322C215.518 70.944 215.182 70.475 214.916 69.915C214.664 69.341 214.538 68.669 214.538 67.899ZM217.184 67.752C217.184 68.55 217.408 69.152 217.856 69.558C218.304 69.964 218.864 70.167 219.536 70.167C220.11 70.167 220.579 70.076 220.943 69.894C221.307 69.712 221.587 69.488 221.783 69.222C221.825 68.928 221.846 68.648 221.846 68.382C221.846 67.99 221.797 67.605 221.699 67.227C221.601 66.849 221.447 66.513 221.237 66.219C221.041 65.925 220.782 65.694 220.46 65.526C220.152 65.344 219.781 65.253 219.347 65.253C218.661 65.253 218.129 65.477 217.751 65.925C217.373 66.359 217.184 66.968 217.184 67.752ZM230.128 75.879C231.052 75.879 231.759 75.655 232.249 75.207C232.739 74.759 232.984 74.143 232.984 73.359C232.984 72.519 232.697 71.903 232.123 71.511C231.549 71.119 230.73 70.923 229.666 70.923L228.007 70.986V63.3H235.231V65.862H230.359V68.697L231.22 68.613C231.906 68.641 232.522 68.767 233.068 68.991C233.628 69.215 234.104 69.53 234.496 69.936C234.888 70.328 235.189 70.811 235.399 71.385C235.609 71.945 235.714 72.575 235.714 73.275C235.714 74.101 235.574 74.829 235.294 75.459C235.014 76.089 234.622 76.614 234.118 77.034C233.628 77.454 233.047 77.769 232.375 77.979C231.703 78.189 230.968 78.294 230.17 78.294C229.54 78.294 228.938 78.238 228.364 78.126C227.804 78.028 227.328 77.888 226.936 77.706L227.671 75.438C227.993 75.578 228.343 75.69 228.721 75.774C229.113 75.844 229.582 75.879 230.128 75.879ZM239.502 63.048C240.146 63.72 240.692 64.462 241.14 65.274C241.588 66.072 241.945 66.898 242.211 67.752C242.491 68.592 242.694 69.446 242.82 70.314C242.946 71.168 243.009 71.987 243.009 72.771C243.009 73.541 242.946 74.353 242.82 75.207C242.694 76.061 242.491 76.922 242.211 77.79C241.931 78.644 241.56 79.484 241.098 80.31C240.65 81.136 240.097 81.906 239.439 82.62L237.675 81.465C238.193 80.765 238.62 80.051 238.956 79.323C239.292 78.609 239.558 77.888 239.754 77.16C239.95 76.418 240.083 75.683 240.153 74.955C240.237 74.213 240.279 73.485 240.279 72.771C240.279 72.099 240.223 71.392 240.111 70.65C240.013 69.894 239.859 69.145 239.649 68.403C239.439 67.647 239.166 66.919 238.83 66.219C238.508 65.505 238.116 64.847 237.654 64.245L239.502 63.048ZM260.504 73.443C260.504 74.129 260.385 74.766 260.147 75.354C259.923 75.942 259.601 76.453 259.181 76.887C258.761 77.321 258.25 77.664 257.648 77.916C257.06 78.168 256.409 78.294 255.695 78.294C254.967 78.294 254.295 78.182 253.679 77.958C253.077 77.72 252.552 77.37 252.104 76.908C251.656 76.446 251.306 75.865 251.054 75.165C250.802 74.465 250.676 73.653 250.676 72.729C250.676 71.343 250.872 70.09 251.264 68.97C251.67 67.85 252.209 66.877 252.881 66.051C253.567 65.211 254.358 64.539 255.254 64.035C256.164 63.517 257.123 63.174 258.131 63.006L258.74 65.169C258.04 65.281 257.396 65.498 256.808 65.82C256.22 66.142 255.695 66.527 255.233 66.975C254.785 67.423 254.4 67.927 254.078 68.487C253.77 69.033 253.553 69.6 253.427 70.188C253.707 69.838 254.071 69.544 254.519 69.306C254.967 69.054 255.527 68.928 256.199 68.928C256.829 68.928 257.41 69.026 257.942 69.222C258.474 69.418 258.929 69.712 259.307 70.104C259.685 70.482 259.979 70.951 260.189 71.511C260.399 72.071 260.504 72.715 260.504 73.443ZM257.858 73.59C257.858 72.022 257.088 71.238 255.548 71.238C254.988 71.238 254.512 71.364 254.12 71.616C253.742 71.868 253.476 72.162 253.322 72.498C253.294 72.652 253.28 72.785 253.28 72.897C253.28 73.009 253.28 73.121 253.28 73.233C253.28 73.569 253.329 73.905 253.427 74.241C253.525 74.563 253.665 74.857 253.847 75.123C254.043 75.375 254.288 75.585 254.582 75.753C254.876 75.907 255.226 75.984 255.632 75.984C256.29 75.984 256.822 75.76 257.228 75.312C257.648 74.864 257.858 74.29 257.858 73.59ZM272.419 73.443C272.419 74.129 272.3 74.766 272.062 75.354C271.838 75.942 271.516 76.453 271.096 76.887C270.676 77.321 270.165 77.664 269.563 77.916C268.975 78.168 268.324 78.294 267.61 78.294C266.882 78.294 266.21 78.182 265.594 77.958C264.992 77.72 264.467 77.37 264.019 76.908C263.571 76.446 263.221 75.865 262.969 75.165C262.717 74.465 262.591 73.653 262.591 72.729C262.591 71.343 262.787 70.09 263.179 68.97C263.585 67.85 264.124 66.877 264.796 66.051C265.482 65.211 266.273 64.539 267.169 64.035C268.079 63.517 269.038 63.174 270.046 63.006L270.655 65.169C269.955 65.281 269.311 65.498 268.723 65.82C268.135 66.142 267.61 66.527 267.148 66.975C266.7 67.423 266.315 67.927 265.993 68.487C265.685 69.033 265.468 69.6 265.342 70.188C265.622 69.838 265.986 69.544 266.434 69.306C266.882 69.054 267.442 68.928 268.114 68.928C268.744 68.928 269.325 69.026 269.857 69.222C270.389 69.418 270.844 69.712 271.222 70.104C271.6 70.482 271.894 70.951 272.104 71.511C272.314 72.071 272.419 72.715 272.419 73.443ZM269.773 73.59C269.773 72.022 269.003 71.238 267.463 71.238C266.903 71.238 266.427 71.364 266.035 71.616C265.657 71.868 265.391 72.162 265.237 72.498C265.209 72.652 265.195 72.785 265.195 72.897C265.195 73.009 265.195 73.121 265.195 73.233C265.195 73.569 265.244 73.905 265.342 74.241C265.44 74.563 265.58 74.857 265.762 75.123C265.958 75.375 266.203 75.585 266.497 75.753C266.791 75.907 267.141 75.984 267.547 75.984C268.205 75.984 268.737 75.76 269.143 75.312C269.563 74.864 269.773 74.29 269.773 73.59ZM284.334 73.443C284.334 74.129 284.215 74.766 283.977 75.354C283.753 75.942 283.431 76.453 283.011 76.887C282.591 77.321 282.08 77.664 281.478 77.916C280.89 78.168 280.239 78.294 279.525 78.294C278.797 78.294 278.125 78.182 277.509 77.958C276.907 77.72 276.382 77.37 275.934 76.908C275.486 76.446 275.136 75.865 274.884 75.165C274.632 74.465 274.506 73.653 274.506 72.729C274.506 71.343 274.702 70.09 275.094 68.97C275.5 67.85 276.039 66.877 276.711 66.051C277.397 65.211 278.188 64.539 279.084 64.035C279.994 63.517 280.953 63.174 281.961 63.006L282.57 65.169C281.87 65.281 281.226 65.498 280.638 65.82C280.05 66.142 279.525 66.527 279.063 66.975C278.615 67.423 278.23 67.927 277.908 68.487C277.6 69.033 277.383 69.6 277.257 70.188C277.537 69.838 277.901 69.544 278.349 69.306C278.797 69.054 279.357 68.928 280.029 68.928C280.659 68.928 281.24 69.026 281.772 69.222C282.304 69.418 282.759 69.712 283.137 70.104C283.515 70.482 283.809 70.951 284.019 71.511C284.229 72.071 284.334 72.715 284.334 73.443ZM281.688 73.59C281.688 72.022 280.918 71.238 279.378 71.238C278.818 71.238 278.342 71.364 277.95 71.616C277.572 71.868 277.306 72.162 277.152 72.498C277.124 72.652 277.11 72.785 277.11 72.897C277.11 73.009 277.11 73.121 277.11 73.233C277.11 73.569 277.159 73.905 277.257 74.241C277.355 74.563 277.495 74.857 277.677 75.123C277.873 75.375 278.118 75.585 278.412 75.753C278.706 75.907 279.056 75.984 279.462 75.984C280.12 75.984 280.652 75.76 281.058 75.312C281.478 74.864 281.688 74.29 281.688 73.59ZM286.463 70.755H291.734V73.17H286.463V70.755ZM293.736 70.629C293.736 68.053 294.177 66.142 295.059 64.896C295.941 63.636 297.208 63.006 298.86 63.006C300.624 63.006 301.919 63.629 302.745 64.875C303.571 66.107 303.984 68.025 303.984 70.629C303.984 73.219 303.536 75.144 302.64 76.404C301.758 77.664 300.491 78.294 298.839 78.294C297.089 78.294 295.801 77.636 294.975 76.32C294.149 74.99 293.736 73.093 293.736 70.629ZM296.466 70.629C296.466 72.337 296.648 73.66 297.012 74.598C297.39 75.522 298.006 75.984 298.86 75.984C299.686 75.984 300.288 75.557 300.666 74.703C301.058 73.849 301.254 72.491 301.254 70.629C301.254 68.935 301.072 67.626 300.708 66.702C300.344 65.778 299.721 65.316 298.839 65.316C297.999 65.316 297.39 65.75 297.012 66.618C296.648 67.486 296.466 68.823 296.466 70.629ZM306.933 75.69H309.852V67.395L310.167 65.967L309.159 67.206L307.29 68.487L306.135 66.912L310.923 63.048H312.456V75.69H315.312V78H306.933V75.69ZM317.861 70.755H323.132V73.17H317.861V70.755ZM335.214 73.443C335.214 74.129 335.095 74.766 334.857 75.354C334.633 75.942 334.311 76.453 333.891 76.887C333.471 77.321 332.96 77.664 332.358 77.916C331.77 78.168 331.119 78.294 330.405 78.294C329.677 78.294 329.005 78.182 328.389 77.958C327.787 77.72 327.262 77.37 326.814 76.908C326.366 76.446 326.016 75.865 325.764 75.165C325.512 74.465 325.386 73.653 325.386 72.729C325.386 71.343 325.582 70.09 325.974 68.97C326.38 67.85 326.919 66.877 327.591 66.051C328.277 65.211 329.068 64.539 329.964 64.035C330.874 63.517 331.833 63.174 332.841 63.006L333.45 65.169C332.75 65.281 332.106 65.498 331.518 65.82C330.93 66.142 330.405 66.527 329.943 66.975C329.495 67.423 329.11 67.927 328.788 68.487C328.48 69.033 328.263 69.6 328.137 70.188C328.417 69.838 328.781 69.544 329.229 69.306C329.677 69.054 330.237 68.928 330.909 68.928C331.539 68.928 332.12 69.026 332.652 69.222C333.184 69.418 333.639 69.712 334.017 70.104C334.395 70.482 334.689 70.951 334.899 71.511C335.109 72.071 335.214 72.715 335.214 73.443ZM332.568 73.59C332.568 72.022 331.798 71.238 330.258 71.238C329.698 71.238 329.222 71.364 328.83 71.616C328.452 71.868 328.186 72.162 328.032 72.498C328.004 72.652 327.99 72.785 327.99 72.897C327.99 73.009 327.99 73.121 327.99 73.233C327.99 73.569 328.039 73.905 328.137 74.241C328.235 74.563 328.375 74.857 328.557 75.123C328.753 75.375 328.998 75.585 329.292 75.753C329.586 75.907 329.936 75.984 330.342 75.984C331 75.984 331.532 75.76 331.938 75.312C332.358 74.864 332.568 74.29 332.568 73.59ZM347.129 73.443C347.129 74.129 347.01 74.766 346.772 75.354C346.548 75.942 346.226 76.453 345.806 76.887C345.386 77.321 344.875 77.664 344.273 77.916C343.685 78.168 343.034 78.294 342.32 78.294C341.592 78.294 340.92 78.182 340.304 77.958C339.702 77.72 339.177 77.37 338.729 76.908C338.281 76.446 337.931 75.865 337.679 75.165C337.427 74.465 337.301 73.653 337.301 72.729C337.301 71.343 337.497 70.09 337.889 68.97C338.295 67.85 338.834 66.877 339.506 66.051C340.192 65.211 340.983 64.539 341.879 64.035C342.789 63.517 343.748 63.174 344.756 63.006L345.365 65.169C344.665 65.281 344.021 65.498 343.433 65.82C342.845 66.142 342.32 66.527 341.858 66.975C341.41 67.423 341.025 67.927 340.703 68.487C340.395 69.033 340.178 69.6 340.052 70.188C340.332 69.838 340.696 69.544 341.144 69.306C341.592 69.054 342.152 68.928 342.824 68.928C343.454 68.928 344.035 69.026 344.567 69.222C345.099 69.418 345.554 69.712 345.932 70.104C346.31 70.482 346.604 70.951 346.814 71.511C347.024 72.071 347.129 72.715 347.129 73.443ZM344.483 73.59C344.483 72.022 343.713 71.238 342.173 71.238C341.613 71.238 341.137 71.364 340.745 71.616C340.367 71.868 340.101 72.162 339.947 72.498C339.919 72.652 339.905 72.785 339.905 72.897C339.905 73.009 339.905 73.121 339.905 73.233C339.905 73.569 339.954 73.905 340.052 74.241C340.15 74.563 340.29 74.857 340.472 75.123C340.668 75.375 340.913 75.585 341.207 75.753C341.501 75.907 341.851 75.984 342.257 75.984C342.915 75.984 343.447 75.76 343.853 75.312C344.273 74.864 344.483 74.29 344.483 73.59Z" fill="black"/>
<path d="M174.127 38.695H172.258L171.502 41.929H169.255L170.011 38.695H168.457L168.919 36.658H170.494L171.019 34.432H169.507L169.969 32.395H171.502L172.237 29.371H174.463L173.749 32.395H175.618L176.353 29.371H178.579L177.865 32.395H179.377L178.852 34.432H177.382L176.857 36.658H178.306L177.802 38.695H176.374L175.618 41.929H173.371L174.127 38.695ZM172.741 36.658H174.61L175.135 34.432H173.266L172.741 36.658ZM186.063 36.931L186.441 39.43H186.546L186.966 36.91L189.78 28.3H192.804L187.344 43.105H185.286L179.784 28.3H183.123L186.063 36.931ZM194.159 28.3H197.036V43H194.159V28.3ZM206.196 39.052C206.196 38.604 206.028 38.24 205.692 37.96C205.37 37.68 204.957 37.428 204.453 37.204C203.963 36.966 203.424 36.728 202.836 36.49C202.262 36.238 201.723 35.937 201.219 35.587C200.729 35.223 200.316 34.775 199.98 34.243C199.658 33.711 199.497 33.032 199.497 32.206C199.497 31.492 199.616 30.876 199.854 30.358C200.092 29.826 200.428 29.385 200.862 29.035C201.31 28.685 201.835 28.426 202.437 28.258C203.039 28.09 203.711 28.006 204.453 28.006C205.307 28.006 206.112 28.083 206.868 28.237C207.624 28.377 208.247 28.587 208.737 28.867L207.834 31.282C207.526 31.086 207.064 30.911 206.448 30.757C205.832 30.589 205.167 30.505 204.453 30.505C203.781 30.505 203.263 30.638 202.899 30.904C202.549 31.17 202.374 31.527 202.374 31.975C202.374 32.395 202.535 32.745 202.857 33.025C203.193 33.305 203.606 33.564 204.096 33.802C204.6 34.04 205.139 34.285 205.713 34.537C206.301 34.789 206.84 35.097 207.33 35.461C207.834 35.811 208.247 36.252 208.569 36.784C208.905 37.302 209.073 37.953 209.073 38.737C209.073 39.521 208.94 40.2 208.674 40.774C208.422 41.334 208.058 41.803 207.582 42.181C207.12 42.559 206.553 42.839 205.881 43.021C205.223 43.203 204.495 43.294 203.697 43.294C202.647 43.294 201.723 43.196 200.925 43C200.127 42.804 199.539 42.608 199.161 42.412L200.085 39.955C200.239 40.039 200.435 40.13 200.673 40.228C200.925 40.326 201.205 40.417 201.513 40.501C201.821 40.585 202.143 40.655 202.479 40.711C202.829 40.767 203.186 40.795 203.55 40.795C204.404 40.795 205.055 40.655 205.503 40.375C205.965 40.081 206.196 39.64 206.196 39.052ZM211.283 28.3H214.16V43H211.283V28.3ZM227.415 30.862H223.131V43H220.254V30.862H215.949V28.3H227.415V30.862ZM235.255 39.052C235.255 38.604 235.087 38.24 234.751 37.96C234.429 37.68 234.016 37.428 233.512 37.204C233.022 36.966 232.483 36.728 231.895 36.49C231.321 36.238 230.782 35.937 230.278 35.587C229.788 35.223 229.375 34.775 229.039 34.243C228.717 33.711 228.556 33.032 228.556 32.206C228.556 31.492 228.675 30.876 228.913 30.358C229.151 29.826 229.487 29.385 229.921 29.035C230.369 28.685 230.894 28.426 231.496 28.258C232.098 28.09 232.77 28.006 233.512 28.006C234.366 28.006 235.171 28.083 235.927 28.237C236.683 28.377 237.306 28.587 237.796 28.867L236.893 31.282C236.585 31.086 236.123 30.911 235.507 30.757C234.891 30.589 234.226 30.505 233.512 30.505C232.84 30.505 232.322 30.638 231.958 30.904C231.608 31.17 231.433 31.527 231.433 31.975C231.433 32.395 231.594 32.745 231.916 33.025C232.252 33.305 232.665 33.564 233.155 33.802C233.659 34.04 234.198 34.285 234.772 34.537C235.36 34.789 235.899 35.097 236.389 35.461C236.893 35.811 237.306 36.252 237.628 36.784C237.964 37.302 238.132 37.953 238.132 38.737C238.132 39.521 237.999 40.2 237.733 40.774C237.481 41.334 237.117 41.803 236.641 42.181C236.179 42.559 235.612 42.839 234.94 43.021C234.282 43.203 233.554 43.294 232.756 43.294C231.706 43.294 230.782 43.196 229.984 43C229.186 42.804 228.598 42.608 228.22 42.412L229.144 39.955C229.298 40.039 229.494 40.13 229.732 40.228C229.984 40.326 230.264 40.417 230.572 40.501C230.88 40.585 231.202 40.655 231.538 40.711C231.888 40.767 232.245 40.795 232.609 40.795C233.463 40.795 234.114 40.655 234.562 40.375C235.024 40.081 235.255 39.64 235.255 39.052ZM240.049 28.3H248.764V30.862H242.926V34.285H248.239V36.847H242.926V40.438H248.869V43H240.049V28.3ZM251.021 28.3C251.315 28.258 251.644 28.223 252.008 28.195C252.386 28.167 252.771 28.146 253.163 28.132C253.555 28.118 253.933 28.111 254.297 28.111C254.675 28.097 255.011 28.09 255.305 28.09C256.607 28.09 257.72 28.272 258.644 28.636C259.568 29 260.317 29.511 260.891 30.169C261.465 30.827 261.885 31.611 262.151 32.521C262.417 33.431 262.55 34.432 262.55 35.524C262.55 36.518 262.424 37.477 262.172 38.401C261.92 39.325 261.5 40.144 260.912 40.858C260.324 41.572 259.547 42.146 258.581 42.58C257.629 43.014 256.446 43.231 255.032 43.231C254.808 43.231 254.507 43.224 254.129 43.21C253.765 43.196 253.38 43.175 252.974 43.147C252.582 43.133 252.204 43.112 251.84 43.084C251.476 43.07 251.203 43.049 251.021 43.021V28.3ZM255.536 30.652C255.228 30.652 254.913 30.659 254.591 30.673C254.283 30.687 254.052 30.708 253.898 30.736V40.585C253.954 40.599 254.045 40.613 254.171 40.627C254.311 40.627 254.458 40.634 254.612 40.648C254.766 40.648 254.913 40.655 255.053 40.669C255.193 40.669 255.298 40.669 255.368 40.669C256.18 40.669 256.852 40.529 257.384 40.249C257.93 39.955 258.357 39.57 258.665 39.094C258.987 38.618 259.211 38.072 259.337 37.456C259.463 36.826 259.526 36.182 259.526 35.524C259.526 34.95 259.47 34.376 259.358 33.802C259.246 33.214 259.036 32.689 258.728 32.227C258.434 31.765 258.028 31.387 257.51 31.093C256.992 30.799 256.334 30.652 255.536 30.652ZM264.155 35.65C264.155 33.2 264.694 31.317 265.772 30.001C266.85 28.671 268.39 28.006 270.392 28.006C271.442 28.006 272.359 28.188 273.143 28.552C273.927 28.916 274.578 29.434 275.096 30.106C275.614 30.778 275.999 31.583 276.251 32.521C276.503 33.459 276.629 34.502 276.629 35.65C276.629 38.1 276.083 39.99 274.991 41.32C273.913 42.636 272.38 43.294 270.392 43.294C269.328 43.294 268.404 43.112 267.62 42.748C266.836 42.384 266.185 41.866 265.667 41.194C265.163 40.522 264.785 39.717 264.533 38.779C264.281 37.841 264.155 36.798 264.155 35.65ZM267.179 35.65C267.179 36.392 267.242 37.078 267.368 37.708C267.494 38.324 267.683 38.856 267.935 39.304C268.201 39.752 268.537 40.102 268.943 40.354C269.349 40.606 269.832 40.732 270.392 40.732C271.414 40.732 272.205 40.333 272.765 39.535C273.325 38.737 273.605 37.442 273.605 35.65C273.605 34.936 273.542 34.271 273.416 33.655C273.304 33.039 273.122 32.5 272.87 32.038C272.618 31.576 272.289 31.219 271.883 30.967C271.477 30.701 270.98 30.568 270.392 30.568C269.37 30.568 268.579 30.981 268.019 31.807C267.459 32.619 267.179 33.9 267.179 35.65ZM282.34 35.335L281.185 33.025H281.08L281.416 35.335V43H278.686V28.195H280.786L286.351 36.028L287.464 38.275H287.569L287.233 36.028V28.3H289.963V43.105H287.863L282.34 35.335ZM299.733 39.745H295.218L294.105 43H291.228L296.52 28.195H298.641L303.933 43H300.909L299.733 39.745ZM295.953 37.435H299.103L298.011 34.159L297.57 31.849H297.465L297.024 34.18L295.953 37.435Z" fill="black"/>
<path d="M868.221 62.766L868.445 64.39H868.459L868.697 62.738L870.713 56.2H871.273L873.303 62.766L873.541 64.39H873.555L873.807 62.738L875.459 56.2H876.593L873.863 66.154H873.219L871.231 59.588L870.979 58.104H870.909L870.657 59.602L868.669 66.154H868.025L865.225 56.2H866.457L868.221 62.766ZM877.897 56.2H883.231V57.236H879.059V60.442H882.881V61.478H879.059V64.964H883.301V66H877.897V56.2ZM891.311 58.44C891.311 58.6733 891.274 58.9113 891.199 59.154C891.124 59.3967 891.012 59.6253 890.863 59.84C890.714 60.0453 890.522 60.2273 890.289 60.386C890.056 60.5447 889.78 60.666 889.463 60.75V60.806C889.743 60.8527 890.009 60.932 890.261 61.044C890.522 61.156 890.751 61.31 890.947 61.506C891.143 61.702 891.302 61.94 891.423 62.22C891.544 62.5 891.605 62.8313 891.605 63.214C891.605 63.718 891.498 64.1567 891.283 64.53C891.078 64.894 890.802 65.1927 890.457 65.426C890.121 65.6593 889.734 65.832 889.295 65.944C888.856 66.056 888.408 66.112 887.951 66.112C887.792 66.112 887.606 66.112 887.391 66.112C887.176 66.112 886.952 66.1027 886.719 66.084C886.486 66.0747 886.252 66.056 886.019 66.028C885.786 66.0093 885.58 65.9767 885.403 65.93V56.284C885.748 56.228 886.15 56.1813 886.607 56.144C887.064 56.1067 887.564 56.088 888.105 56.088C888.469 56.088 888.838 56.1207 889.211 56.186C889.594 56.242 889.939 56.3587 890.247 56.536C890.555 56.704 890.807 56.942 891.003 57.25C891.208 57.558 891.311 57.9547 891.311 58.44ZM888.063 65.104C888.362 65.104 888.651 65.0713 888.931 65.006C889.211 64.9313 889.458 64.8193 889.673 64.67C889.888 64.5113 890.056 64.32 890.177 64.096C890.308 63.872 890.373 63.606 890.373 63.298C890.373 62.9153 890.294 62.6073 890.135 62.374C889.986 62.1407 889.785 61.9587 889.533 61.828C889.29 61.6973 889.015 61.6087 888.707 61.562C888.399 61.5153 888.091 61.492 887.783 61.492H886.565V65.006C886.63 65.0247 886.724 65.0387 886.845 65.048C886.966 65.0573 887.097 65.0667 887.237 65.076C887.377 65.0853 887.522 65.0947 887.671 65.104C887.82 65.104 887.951 65.104 888.063 65.104ZM887.293 60.512C887.452 60.512 887.643 60.5073 887.867 60.498C888.091 60.4887 888.278 60.4747 888.427 60.456C888.651 60.3813 888.861 60.2927 889.057 60.19C889.253 60.078 889.426 59.952 889.575 59.812C889.734 59.6627 889.855 59.4947 889.939 59.308C890.032 59.112 890.079 58.902 890.079 58.678C890.079 58.37 890.018 58.118 889.897 57.922C889.785 57.7167 889.631 57.5533 889.435 57.432C889.239 57.3107 889.015 57.2267 888.763 57.18C888.511 57.124 888.254 57.096 887.993 57.096C887.685 57.096 887.4 57.1053 887.139 57.124C886.887 57.1333 886.696 57.152 886.565 57.18V60.512H887.293ZM898.003 63.508C898.003 63.116 897.886 62.7987 897.653 62.556C897.419 62.304 897.125 62.0847 896.771 61.898C896.425 61.702 896.047 61.52 895.637 61.352C895.226 61.184 894.843 60.9833 894.489 60.75C894.143 60.5073 893.854 60.2133 893.621 59.868C893.387 59.5133 893.271 59.0653 893.271 58.524C893.271 57.7587 893.537 57.152 894.069 56.704C894.601 56.256 895.357 56.032 896.337 56.032C896.906 56.032 897.424 56.074 897.891 56.158C898.357 56.242 898.721 56.3493 898.983 56.48L898.633 57.502C898.418 57.3993 898.101 57.3013 897.681 57.208C897.27 57.1147 896.803 57.068 896.281 57.068C895.665 57.068 895.203 57.208 894.895 57.488C894.587 57.7587 894.433 58.0807 894.433 58.454C894.433 58.818 894.549 59.1213 894.783 59.364C895.016 59.6067 895.305 59.826 895.651 60.022C896.005 60.2087 896.388 60.3953 896.799 60.582C897.209 60.7687 897.587 60.988 897.933 61.24C898.287 61.4827 898.581 61.7767 898.815 62.122C899.048 62.4673 899.165 62.8967 899.165 63.41C899.165 63.83 899.09 64.208 898.941 64.544C898.791 64.88 898.572 65.1693 898.283 65.412C897.993 65.6547 897.643 65.8413 897.233 65.972C896.822 66.1027 896.355 66.168 895.833 66.168C895.133 66.168 894.554 66.112 894.097 66C893.639 65.8973 893.285 65.7807 893.033 65.65L893.425 64.6C893.639 64.7213 893.957 64.8427 894.377 64.964C894.797 65.076 895.268 65.132 895.791 65.132C896.099 65.132 896.388 65.104 896.659 65.048C896.929 64.9827 897.163 64.8847 897.359 64.754C897.555 64.614 897.709 64.4413 897.821 64.236C897.942 64.0307 898.003 63.788 898.003 63.508ZM901.282 56.2H902.444V66H901.282V56.2ZM911.418 57.236H908.366V66H907.204V57.236H904.152V56.2H911.418V57.236ZM912.856 56.2H918.19V57.236H914.018V60.442H917.84V61.478H914.018V64.964H918.26V66H912.856V56.2ZM930.002 58.44C930.002 58.6733 929.965 58.9113 929.89 59.154C929.816 59.3967 929.704 59.6253 929.554 59.84C929.405 60.0453 929.214 60.2273 928.98 60.386C928.747 60.5447 928.472 60.666 928.154 60.75V60.806C928.434 60.8527 928.7 60.932 928.952 61.044C929.214 61.156 929.442 61.31 929.638 61.506C929.834 61.702 929.993 61.94 930.114 62.22C930.236 62.5 930.296 62.8313 930.296 63.214C930.296 63.718 930.189 64.1567 929.974 64.53C929.769 64.894 929.494 65.1927 929.148 65.426C928.812 65.6593 928.425 65.832 927.986 65.944C927.548 66.056 927.1 66.112 926.642 66.112C926.484 66.112 926.297 66.112 926.082 66.112C925.868 66.112 925.644 66.1027 925.41 66.084C925.177 66.0747 924.944 66.056 924.71 66.028C924.477 66.0093 924.272 65.9767 924.094 65.93V56.284C924.44 56.228 924.841 56.1813 925.298 56.144C925.756 56.1067 926.255 56.088 926.796 56.088C927.16 56.088 927.529 56.1207 927.902 56.186C928.285 56.242 928.63 56.3587 928.938 56.536C929.246 56.704 929.498 56.942 929.694 57.25C929.9 57.558 930.002 57.9547 930.002 58.44ZM926.754 65.104C927.053 65.104 927.342 65.0713 927.622 65.006C927.902 64.9313 928.15 64.8193 928.364 64.67C928.579 64.5113 928.747 64.32 928.868 64.096C928.999 63.872 929.064 63.606 929.064 63.298C929.064 62.9153 928.985 62.6073 928.826 62.374C928.677 62.1407 928.476 61.9587 928.224 61.828C927.982 61.6973 927.706 61.6087 927.398 61.562C927.09 61.5153 926.782 61.492 926.474 61.492H925.256V65.006C925.322 65.0247 925.415 65.0387 925.536 65.048C925.658 65.0573 925.788 65.0667 925.928 65.076C926.068 65.0853 926.213 65.0947 926.362 65.104C926.512 65.104 926.642 65.104 926.754 65.104ZM925.984 60.512C926.143 60.512 926.334 60.5073 926.558 60.498C926.782 60.4887 926.969 60.4747 927.118 60.456C927.342 60.3813 927.552 60.2927 927.748 60.19C927.944 60.078 928.117 59.952 928.266 59.812C928.425 59.6627 928.546 59.4947 928.63 59.308C928.724 59.112 928.77 58.902 928.77 58.678C928.77 58.37 928.71 58.118 928.588 57.922C928.476 57.7167 928.322 57.5533 928.126 57.432C927.93 57.3107 927.706 57.2267 927.454 57.18C927.202 57.124 926.946 57.096 926.684 57.096C926.376 57.096 926.092 57.1053 925.83 57.124C925.578 57.1333 925.387 57.152 925.256 57.18V60.512H925.984ZM934.426 62.108L931.192 56.2H932.55L934.846 60.484L935.084 61.338H935.098L935.35 60.456L937.548 56.2H938.794L935.588 62.094V66H934.426V62.108Z" fill="black"/>
<path fill-rule="evenodd" clip-rule="evenodd" d="M962.52 39.0574H962.351L947 40.719V69.4945L962.351 78.8382L977.702 69.4945V40.719L962.52 39.0574ZM1024.02 40.6218H1022.09V53.7311H1024.02V40.6218ZM987.862 40.6326V45.7684C988.613 44.9864 989.639 44.5436 990.711 44.5384C991.682 44.4791 992.633 44.845 993.325 45.5448C994.018 46.2446 994.387 47.2124 994.34 48.2068V53.7634H992.367V48.4658C992.423 47.949 992.275 47.4306 991.957 47.0255C991.638 46.6205 991.174 46.3622 990.668 46.3079H990.352C989.346 46.3698 988.432 46.9295 987.904 47.8076V53.7634H985.9V40.6326H987.862ZM1024.02 69.4837H1022.28V68.0595C1021.48 69.1353 1020.23 69.7538 1018.91 69.7211C1016.48 69.5528 1014.58 67.4822 1014.58 64.9845C1014.58 62.4867 1016.48 60.4162 1018.91 60.2479C1020.12 60.2052 1021.28 60.7203 1022.08 61.6505V56.3205H1024.02V69.4837ZM994.066 68.0595C994.263 68.0515 994.458 68.0152 994.646 67.9516V69.3866C994.248 69.5404 993.826 69.6172 993.401 69.6132C992.648 69.6769 991.939 69.2429 991.639 68.5342C990.704 69.31 989.53 69.7227 988.326 69.6995C986.733 69.6995 985.256 68.804 985.256 66.9482C985.256 64.65 987.366 63.9379 989.17 63.9379C989.94 63.9505 990.707 64.0408 991.46 64.2076V63.884C991.46 62.805 990.658 61.9742 989.149 61.9742C988.059 61.9764 986.98 62.2116 985.984 62.6647V60.8305C987.068 60.451 988.204 60.2506 989.35 60.2371C991.839 60.2371 993.369 61.4455 993.369 64.1753V67.4121C993.355 67.5668 993.401 67.721 993.498 67.8406C993.595 67.9601 993.735 68.035 993.886 68.0487H994.066V68.0595ZM987.271 66.8403C987.298 67.229 987.476 67.5905 987.766 67.844C988.055 68.0974 988.432 68.2217 988.811 68.189H988.928C989.882 68.1906 990.797 67.8022 991.47 67.11V65.5779C990.842 65.4414 990.203 65.3655 989.561 65.3513C988.506 65.3513 987.282 65.7074 987.282 66.8403H987.271ZM1003.02 60.9384C1002.2 60.4632 1001.26 60.2246 1000.31 60.2479H999.942C998.733 60.2873 997.589 60.8166 996.762 61.7192C995.935 62.6218 995.492 63.8236 995.532 65.06V65.5024C995.696 68.0004 997.805 69.8921 1000.25 69.7318C1001.25 69.7555 1002.25 69.5452 1003.16 69.1168V67.2718C1002.38 67.7215 1001.49 67.9591 1000.6 67.9624C999.52 68.0288 998.496 67.4793 997.938 66.5356C997.381 65.5918 997.381 64.4095 997.938 63.4658C998.496 62.522 999.52 61.9725 1000.6 62.039C1001.46 62.0357 1002.31 62.2989 1003.02 62.7942V60.9384ZM1013.15 68.0595C1013.35 68.0515 1013.54 68.0152 1013.73 67.9516V69.3866C1013.33 69.5404 1012.91 69.6172 1012.49 69.6132C1011.73 69.6769 1011.03 69.2429 1010.72 68.5342C1009.79 69.31 1008.62 69.7227 1007.41 69.6995C1005.82 69.6995 1004.34 68.804 1004.34 66.9482C1004.34 64.65 1006.45 63.9379 1008.26 63.9379C1009.03 63.9505 1009.79 64.0408 1010.55 64.2076V63.884C1010.55 62.805 1009.74 61.9742 1008.23 61.9742C1007.14 61.9764 1006.07 62.2116 1005.07 62.6647V60.8305C1006.15 60.451 1007.29 60.2506 1008.44 60.2371C1010.93 60.2371 1012.46 61.4455 1012.46 64.1753V67.4121C1012.44 67.5668 1012.49 67.721 1012.58 67.8406C1012.68 67.9601 1012.82 68.035 1012.97 68.0487H1013.15V68.0595ZM1006.86 67.8481C1006.56 67.5943 1006.38 67.2311 1006.36 66.8403H1006.38C1006.38 65.7074 1007.54 65.3513 1008.66 65.3513C1009.3 65.3655 1009.94 65.4414 1010.57 65.5779V67.11C1009.89 67.8022 1008.98 68.1906 1008.02 68.189H1007.91C1007.53 68.2247 1007.15 68.1019 1006.86 67.8481ZM1016.33 64.9305C1016.33 63.2859 1017.63 61.9526 1019.24 61.9526L1019.26 62.0066C1020.47 62.0066 1021.57 62.7382 1022.07 63.8732V66.0311C1021.59 67.1871 1020.47 67.9296 1019.24 67.9084C1017.63 67.9084 1016.33 66.5752 1016.33 64.9305ZM1030.35 60.2479C1033.84 60.2479 1035.05 63.1395 1034.48 65.7397H1027.92C1028.14 67.3582 1029.68 68.0163 1031.29 68.0163C1032.25 68.0196 1033.2 67.8021 1034.07 67.3797V69.1061C1033.07 69.5421 1031.99 69.7519 1030.91 69.7211C1028.24 69.7211 1025.9 68.189 1025.9 64.9521C1025.84 63.7502 1026.25 62.5736 1027.04 61.6841C1027.83 60.7945 1028.94 60.2658 1030.12 60.2155H1030.35V60.2479ZM1027.87 64.1753C1027.97 62.8237 1029.12 61.8104 1030.44 61.9095H1030.49C1031.11 61.8531 1031.72 62.08 1032.16 62.5295C1032.6 62.979 1032.83 63.6051 1032.78 64.24H1027.87V64.1753ZM1036.49 69.4621V60.4961H1038.23V61.575C1038.98 60.7197 1040.04 60.2229 1041.16 60.2047C1042.3 60.1328 1043.37 60.7163 1043.95 61.7153C1044.74 60.8335 1045.85 60.3161 1047.02 60.2803C1047.95 60.2327 1048.86 60.6011 1049.51 61.2901C1050.15 61.9792 1050.48 62.9213 1050.39 63.8732V69.4837H1048.39V63.9271C1048.44 63.4734 1048.31 63.0191 1048.02 62.6647C1047.74 62.3104 1047.34 62.0852 1046.89 62.039H1046.62C1045.75 62.0941 1044.95 62.536 1044.43 63.2474V69.4837H1042.43V63.9271C1042.47 63.47 1042.34 63.0139 1042.05 62.6611C1041.76 62.3082 1041.35 62.088 1040.9 62.0497H1040.69C1039.75 62.1344 1038.89 62.6449 1038.36 63.4416V69.5161H1036.53L1036.49 69.4621ZM1060.98 60.4745H1058.97L1056.32 67.2718L1053.31 60.4853H1051.2L1055.42 69.5484L1055.24 70.0016C1054.72 71.3611 1054 72.0516 1053.05 72.0516C1052.75 72.0548 1052.45 72.0112 1052.16 71.9221V73.6161C1052.54 73.7125 1052.93 73.7632 1053.32 73.7671C1054.65 73.7671 1055.9 73.0226 1056.85 70.6813L1060.98 60.4745ZM999.689 44.7866V41.5497L997.727 42.0137V44.7326H996.144V46.4913H997.79V50.9905C997.723 51.817 998.024 52.6301 998.61 53.2038C999.195 53.7775 1000 54.0505 1000.81 53.9468C1001.6 53.9535 1002.39 53.8259 1003.14 53.5692V51.8429C1002.57 52.0781 1001.97 52.199 1001.36 52.199C1000.22 52.199 999.689 51.8105 999.689 50.6237V46.5129H1002.85V44.7866H999.689ZM1005.39 53.7526V44.7542H1007.14V45.8332C1007.88 44.9766 1008.94 44.476 1010.06 44.4521C1011.16 44.381 1012.21 44.9314 1012.8 45.8871C1013.6 45.0053 1014.7 44.4879 1015.87 44.4521C1016.81 44.4146 1017.72 44.7986 1018.36 45.5035C1019 46.2085 1019.31 47.1642 1019.21 48.1205V53.7418H1017.2V48.1853C1017.25 47.7315 1017.12 47.2772 1016.84 46.9229C1016.56 46.5685 1016.15 46.3433 1015.7 46.2971H1015.46C1014.6 46.3523 1013.8 46.7942 1013.28 47.5055V53.7418H1011.27V48.1853C1011.32 47.7315 1011.19 47.2772 1010.91 46.9229C1010.63 46.5685 1010.22 46.3433 1009.78 46.2971H1009.53C1008.59 46.3818 1007.74 46.8923 1007.2 47.689V53.7634H1005.39V53.7526ZM975.697 68.3033L975.708 68.2968L975.697 68.3184V68.3033ZM975.697 56.3205V68.3033L962.351 76.4321L949.005 68.3184V56.5147L962.288 64.6068V66.0311L953.183 60.5284V61.9418L962.34 67.5632V69.0629L953.193 63.4955V64.9521L962.351 70.5734L971.583 64.9197V58.8129L975.697 56.3205ZM975.708 54.7776L972.036 56.9355L970.348 58.0145L962.309 53.0837V54.4971L969.156 58.7266L969.008 58.8237L967.953 59.4063L962.288 55.9537V57.3995L966.761 60.1184L965.706 60.8413L962.33 58.7913V60.2047L964.545 61.5426L962.298 62.9021L949.11 54.864L962.309 46.7287L975.708 54.7776ZM962.288 45.2721L975.708 53.3534V42.564L962.361 41.129L949.015 42.564V53.3534L962.288 45.2721Z" fill="#231F20"/>
</svg>
