<svg width="75" height="72" viewBox="0 0 75 72" fill="none" xmlns="http://www.w3.org/2000/svg">
<path fill-rule="evenodd" clip-rule="evenodd" d="M45.656 65.033H29.656V41.21H45.656V65.033ZM42.718 44.134H32.593V62.11H42.718V44.134Z" fill="#81B3D2"/>
<path fill-rule="evenodd" clip-rule="evenodd" d="M72.771 39.253L74.847 37.185L64.939 27.32V0H51.127V13.567L37.5 0L0.151993 37.185L2.22899 39.253L10.061 31.458V69.076H6.12399V72H69.999V69.076H64.94V31.458L72.771 39.253ZM62.002 69.076H12.999V28.534L37.5 4.149L62.002 28.534V69.076ZM54.064 16.492L62.002 24.394V2.924H54.064V16.492Z" fill="#81B3D2"/>
<path fill-rule="evenodd" clip-rule="evenodd" d="M37.656 34.7929C33.376 34.7929 29.906 31.3409 29.906 27.0799C29.906 22.8209 33.375 19.3669 37.656 19.3669C41.935 19.3669 45.406 22.8209 45.406 27.0799C45.406 31.3409 41.935 34.7929 37.656 34.7929ZM42.625 27.0799C42.625 24.3489 40.4 22.1349 37.656 22.1349C34.911 22.1349 32.686 24.3489 32.686 27.0799C32.686 29.8119 34.91 32.0279 37.656 32.0279C40.4 32.0279 42.625 29.8119 42.625 27.0799ZM17.061 41.2099H20.061V45.1289H17.061V41.2099ZM25.999 41.2099H22.999V45.1289H25.999V41.2099ZM17.061 47.1819H20.061V51.1009H17.061V47.1819ZM25.999 47.1819H22.999V51.1009H25.999V47.1819ZM48.998 41.2099H51.998V45.1289H48.998V41.2099ZM57.936 41.2099H54.936V45.1289H57.936V41.2099ZM48.998 47.1819H51.998V51.1009H48.998V47.1819ZM57.936 47.1819H54.936V51.1009H57.936V47.1819Z" fill="#81B3D2"/>
</svg>
