<svg width="75" height="70" viewBox="0 0 75 70" fill="none" xmlns="http://www.w3.org/2000/svg">
<path fill-rule="evenodd" clip-rule="evenodd" d="M8.97802 31.544H69.855C69.896 30.925 69.924 30.303 69.924 29.674C69.924 29.2812 69.9081 28.8934 69.8922 28.5046V28.5045L69.892 28.501C69.227 12.657 55.186 0 37.952 0C20.719 0 6.67702 12.657 6.01302 28.501C5.99602 28.891 5.98102 29.281 5.98102 29.674C5.98102 30.303 6.00902 30.925 6.05102 31.544H8.97802ZM21.957 42.465L16.634 38.406L11.308 42.465L5.12002 37.751L6.84102 35.294L11.308 38.695L16.635 34.638L21.958 38.695L27.283 34.638L32.611 38.695L37.939 34.638L43.267 38.695L48.596 34.638L53.923 38.695L59.253 34.639L64.589 38.696L69.063 35.293L70.783 37.752L64.589 42.464L59.253 38.405L53.923 42.465L48.596 38.406L43.267 42.465L37.939 38.406L32.611 42.465L27.283 38.406L21.957 42.465ZM5.05102 46.71H70.854C73.128 46.71 74.988 48.65 74.988 51.023V54.527C74.988 56.899 73.127 58.84 70.853 58.84H69.923V59.893C69.923 65.429 65.581 69.958 60.275 69.958H15.629C10.322 69.958 5.98102 65.429 5.98102 59.893V58.84H5.05102C2.77702 58.84 0.916016 56.899 0.916016 54.527V51.023C0.916016 48.65 2.77702 46.71 5.05102 46.71ZM60.276 66.915C63.987 66.915 67.006 63.765 67.006 59.894H67.005V58.841H8.89802V59.894C8.89802 63.765 11.918 66.915 15.629 66.915H60.276ZM72.071 54.527C72.071 55.215 71.513 55.798 70.853 55.798H5.05102C4.39102 55.798 3.83402 55.216 3.83402 54.527V51.023C3.83402 50.335 4.39202 49.752 5.05102 49.752H70.853C71.513 49.752 72.071 50.334 72.071 51.023V54.527ZM66.973 28.501C66.302 14.359 53.543 3.043 37.952 3.043C22.361 3.043 9.60402 14.359 8.93102 28.501H66.973Z" fill="#81B3D2"/>
<path d="M37.952 17.29C39.0262 17.29 39.897 16.3811 39.897 15.26C39.897 14.1388 39.0262 13.23 37.952 13.23C36.8778 13.23 36.007 14.1388 36.007 15.26C36.007 16.3811 36.8778 17.29 37.952 17.29Z" fill="#81B3D2"/>
<path d="M30.172 12.26C31.2468 12.26 32.118 11.3511 32.118 10.23C32.118 9.10881 31.2468 8.19995 30.172 8.19995C29.0973 8.19995 28.226 9.10881 28.226 10.23C28.226 11.3511 29.0973 12.26 30.172 12.26Z" fill="#81B3D2"/>
<path d="M45.732 12.26C46.8068 12.26 47.678 11.3511 47.678 10.23C47.678 9.10881 46.8068 8.19995 45.732 8.19995C44.6573 8.19995 43.786 9.10881 43.786 10.23C43.786 11.3511 44.6573 12.26 45.732 12.26Z" fill="#81B3D2"/>
</svg>
