<svg width="1200" height="70" viewBox="0 0 1200 70" fill="none" xmlns="http://www.w3.org/2000/svg">
<rect width="1200" height="56" fill="white"/>
<path d="M78.6848 26.568L78.7968 25.294H78.7268L78.0688 26.61L74.4148 32H72.9728V22.2H74.8908V27.534L74.7508 28.85H74.8348L75.5208 27.492L79.1748 22.2H80.6028V32H78.6848V26.568ZM87.799 27.898H84.215V32H82.297V22.2H84.215V26.19H87.799V22.2H89.717V32H87.799V27.898ZM95.2522 30.936C95.0748 30.964 94.8928 30.9827 94.7062 30.992C94.5195 31.0013 94.3188 31.006 94.1042 31.006C93.6562 31.006 93.2408 30.9313 92.8582 30.782C92.4755 30.6233 92.1395 30.3853 91.8502 30.068C91.5702 29.7413 91.3462 29.3353 91.1782 28.85C91.0195 28.3553 90.9402 27.772 90.9402 27.1C90.9402 26.4653 91.0195 25.9007 91.1782 25.406C91.3462 24.902 91.5795 24.4773 91.8782 24.132C92.1862 23.7773 92.5502 23.5067 92.9702 23.32C93.3902 23.1333 93.8568 23.04 94.3702 23.04C94.4915 23.04 94.6408 23.0447 94.8182 23.054C94.9955 23.0633 95.1402 23.082 95.2522 23.11V21.92H97.1422V23.152C97.3102 23.1053 97.5062 23.0773 97.7302 23.068C97.9635 23.0493 98.1548 23.04 98.3042 23.04C98.7522 23.04 99.1675 23.124 99.5502 23.292C99.9328 23.4507 100.264 23.698 100.544 24.034C100.834 24.3607 101.058 24.7713 101.216 25.266C101.375 25.7513 101.454 26.316 101.454 26.96C101.454 27.6227 101.366 28.206 101.188 28.71C101.011 29.214 100.768 29.6387 100.46 29.984C100.152 30.32 99.7928 30.5767 99.3822 30.754C98.9808 30.922 98.5515 31.006 98.0942 31.006C97.9355 31.006 97.7675 31.0013 97.5902 30.992C97.4222 30.9733 97.2728 30.9453 97.1422 30.908V32.28H95.2522V30.936ZM97.8562 24.594C97.7535 24.594 97.6228 24.5987 97.4642 24.608C97.3055 24.6173 97.1748 24.636 97.0722 24.664V29.424C97.1468 29.4427 97.2402 29.452 97.3522 29.452C97.4735 29.452 97.5902 29.452 97.7022 29.452C97.9542 29.452 98.1922 29.4053 98.4162 29.312C98.6402 29.2187 98.8362 29.0693 99.0042 28.864C99.1722 28.6587 99.3028 28.402 99.3962 28.094C99.4895 27.786 99.5362 27.4127 99.5362 26.974C99.5362 26.2273 99.3868 25.644 99.0882 25.224C98.7895 24.804 98.3788 24.594 97.8562 24.594ZM94.5942 29.452C94.6688 29.452 94.7808 29.452 94.9302 29.452C95.0888 29.4427 95.2195 29.4193 95.3222 29.382V24.636C95.2288 24.6173 95.1215 24.608 95.0002 24.608C94.8788 24.5987 94.7668 24.594 94.6642 24.594C94.1508 24.594 93.7215 24.7947 93.3762 25.196C93.0308 25.588 92.8582 26.218 92.8582 27.086C92.8582 27.842 93.0168 28.4253 93.3342 28.836C93.6515 29.2467 94.0715 29.452 94.5942 29.452ZM102.346 27.1C102.346 25.4667 102.706 24.2113 103.424 23.334C104.143 22.4473 105.17 22.004 106.504 22.004C107.204 22.004 107.816 22.1253 108.338 22.368C108.861 22.6107 109.295 22.956 109.64 23.404C109.986 23.852 110.242 24.3887 110.41 25.014C110.578 25.6393 110.662 26.3347 110.662 27.1C110.662 28.7333 110.298 29.9933 109.57 30.88C108.852 31.7573 107.83 32.196 106.504 32.196C105.795 32.196 105.179 32.0747 104.656 31.832C104.134 31.5893 103.7 31.244 103.354 30.796C103.018 30.348 102.766 29.8113 102.598 29.186C102.43 28.5607 102.346 27.8653 102.346 27.1ZM104.362 27.1C104.362 27.5947 104.404 28.052 104.488 28.472C104.572 28.8827 104.698 29.2373 104.866 29.536C105.044 29.8347 105.268 30.068 105.538 30.236C105.809 30.404 106.131 30.488 106.504 30.488C107.186 30.488 107.713 30.222 108.086 29.69C108.46 29.158 108.646 28.2947 108.646 27.1C108.646 26.624 108.604 26.1807 108.52 25.77C108.446 25.3593 108.324 25 108.156 24.692C107.988 24.384 107.769 24.146 107.498 23.978C107.228 23.8007 106.896 23.712 106.504 23.712C105.823 23.712 105.296 23.9873 104.922 24.538C104.549 25.0793 104.362 25.9333 104.362 27.1ZM112.033 22.298C112.425 22.2233 112.855 22.1673 113.321 22.13C113.797 22.0833 114.269 22.06 114.735 22.06C115.221 22.06 115.706 22.102 116.191 22.186C116.686 22.2607 117.129 22.4193 117.521 22.662C117.913 22.8953 118.231 23.2267 118.473 23.656C118.725 24.076 118.851 24.6267 118.851 25.308C118.851 25.924 118.744 26.4467 118.529 26.876C118.315 27.296 118.03 27.6413 117.675 27.912C117.321 28.1827 116.915 28.3787 116.457 28.5C116.009 28.6213 115.543 28.682 115.057 28.682C115.011 28.682 114.936 28.682 114.833 28.682C114.731 28.682 114.623 28.682 114.511 28.682C114.399 28.6727 114.287 28.6633 114.175 28.654C114.073 28.6447 113.998 28.6353 113.951 28.626V32H112.033V22.298ZM114.889 23.712C114.703 23.712 114.525 23.7213 114.357 23.74C114.189 23.7493 114.054 23.7633 113.951 23.782V26.96C113.989 26.9693 114.045 26.9787 114.119 26.988C114.194 26.9973 114.273 27.0067 114.357 27.016C114.441 27.016 114.521 27.016 114.595 27.016C114.679 27.016 114.74 27.016 114.777 27.016C115.029 27.016 115.277 26.9927 115.519 26.946C115.771 26.8993 115.995 26.8153 116.191 26.694C116.387 26.5633 116.541 26.386 116.653 26.162C116.775 25.938 116.835 25.644 116.835 25.28C116.835 24.972 116.779 24.72 116.667 24.524C116.555 24.3187 116.406 24.1553 116.219 24.034C116.042 23.9127 115.837 23.8287 115.603 23.782C115.37 23.7353 115.132 23.712 114.889 23.712ZM127.647 26.918L127.857 24.972H127.773L127.171 26.54L125.085 30.194H124.469L122.271 26.526L121.655 24.972H121.585L121.865 26.904V32H120.045V22.2H121.795L124.413 26.68L124.875 27.8H124.931L125.351 26.652L127.829 22.2H129.565V32H127.647V26.918ZM136.072 29.83H133.062L132.32 32H130.402L133.93 22.13H135.344L138.872 32H136.856L136.072 29.83ZM133.552 28.29H135.652L134.924 26.106L134.63 24.566H134.56L134.266 26.12L133.552 28.29ZM148.189 33.75H146.831L146.621 32H139.719V22.2H141.637V30.292H145.011V22.2H146.929V30.292H148.189V33.75ZM154.974 26.568L155.086 25.294H155.016L154.358 26.61L150.704 32H149.262V22.2H151.18V27.534L151.04 28.85H151.124L151.81 27.492L155.464 22.2H156.892V32H154.974V26.568ZM165.012 32H163.094V28.122L162.086 28.388L160.042 32H157.816L159.832 28.738L160.672 28.136C160.373 28.0613 160.093 27.9493 159.832 27.8C159.571 27.6413 159.342 27.4407 159.146 27.198C158.95 26.9553 158.796 26.6707 158.684 26.344C158.572 26.008 158.516 25.63 158.516 25.21C158.516 24.622 158.619 24.1273 158.824 23.726C159.029 23.3247 159.314 23.0027 159.678 22.76C160.042 22.508 160.476 22.3307 160.98 22.228C161.484 22.116 162.03 22.06 162.618 22.06C162.777 22.06 162.959 22.0647 163.164 22.074C163.369 22.0833 163.579 22.0973 163.794 22.116C164.018 22.1347 164.233 22.158 164.438 22.186C164.653 22.214 164.844 22.2513 165.012 22.298V32ZM162.38 23.768C162.128 23.768 161.89 23.7913 161.666 23.838C161.442 23.8847 161.246 23.964 161.078 24.076C160.91 24.188 160.775 24.342 160.672 24.538C160.579 24.734 160.532 24.986 160.532 25.294C160.532 25.5833 160.579 25.8307 160.672 26.036C160.765 26.232 160.896 26.3953 161.064 26.526C161.232 26.6473 161.428 26.736 161.652 26.792C161.876 26.848 162.119 26.876 162.38 26.876H163.094V23.838C162.991 23.8193 162.884 23.8053 162.772 23.796C162.669 23.7773 162.539 23.768 162.38 23.768Z" fill="black"/>
<path d="M305.148 30.936C304.97 30.964 304.788 30.9827 304.602 30.992C304.415 31.0013 304.214 31.006 304 31.006C303.552 31.006 303.136 30.9313 302.754 30.782C302.371 30.6233 302.035 30.3853 301.746 30.068C301.466 29.7413 301.242 29.3353 301.074 28.85C300.915 28.3553 300.836 27.772 300.836 27.1C300.836 26.4653 300.915 25.9007 301.074 25.406C301.242 24.902 301.475 24.4773 301.774 24.132C302.082 23.7773 302.446 23.5067 302.866 23.32C303.286 23.1333 303.752 23.04 304.266 23.04C304.387 23.04 304.536 23.0447 304.714 23.054C304.891 23.0633 305.036 23.082 305.148 23.11V21.92H307.038V23.152C307.206 23.1053 307.402 23.0773 307.626 23.068C307.859 23.0493 308.05 23.04 308.2 23.04C308.648 23.04 309.063 23.124 309.446 23.292C309.828 23.4507 310.16 23.698 310.44 24.034C310.729 24.3607 310.953 24.7713 311.112 25.266C311.27 25.7513 311.35 26.316 311.35 26.96C311.35 27.6227 311.261 28.206 311.084 28.71C310.906 29.214 310.664 29.6387 310.356 29.984C310.048 30.32 309.688 30.5767 309.278 30.754C308.876 30.922 308.447 31.006 307.99 31.006C307.831 31.006 307.663 31.0013 307.486 30.992C307.318 30.9733 307.168 30.9453 307.038 30.908V32.28H305.148V30.936ZM307.752 24.594C307.649 24.594 307.518 24.5987 307.36 24.608C307.201 24.6173 307.07 24.636 306.968 24.664V29.424C307.042 29.4427 307.136 29.452 307.248 29.452C307.369 29.452 307.486 29.452 307.598 29.452C307.85 29.452 308.088 29.4053 308.312 29.312C308.536 29.2187 308.732 29.0693 308.9 28.864C309.068 28.6587 309.198 28.402 309.292 28.094C309.385 27.786 309.432 27.4127 309.432 26.974C309.432 26.2273 309.282 25.644 308.984 25.224C308.685 24.804 308.274 24.594 307.752 24.594ZM304.49 29.452C304.564 29.452 304.676 29.452 304.826 29.452C304.984 29.4427 305.115 29.4193 305.218 29.382V24.636C305.124 24.6173 305.017 24.608 304.896 24.608C304.774 24.5987 304.662 24.594 304.56 24.594C304.046 24.594 303.617 24.7947 303.272 25.196C302.926 25.588 302.754 26.218 302.754 27.086C302.754 27.842 302.912 28.4253 303.23 28.836C303.547 29.2467 303.967 29.452 304.49 29.452ZM312.242 27.1C312.242 25.4667 312.601 24.2113 313.32 23.334C314.039 22.4473 315.065 22.004 316.4 22.004C317.1 22.004 317.711 22.1253 318.234 22.368C318.757 22.6107 319.191 22.956 319.536 23.404C319.881 23.852 320.138 24.3887 320.306 25.014C320.474 25.6393 320.558 26.3347 320.558 27.1C320.558 28.7333 320.194 29.9933 319.466 30.88C318.747 31.7573 317.725 32.196 316.4 32.196C315.691 32.196 315.075 32.0747 314.552 31.832C314.029 31.5893 313.595 31.244 313.25 30.796C312.914 30.348 312.662 29.8113 312.494 29.186C312.326 28.5607 312.242 27.8653 312.242 27.1ZM314.258 27.1C314.258 27.5947 314.3 28.052 314.384 28.472C314.468 28.8827 314.594 29.2373 314.762 29.536C314.939 29.8347 315.163 30.068 315.434 30.236C315.705 30.404 316.027 30.488 316.4 30.488C317.081 30.488 317.609 30.222 317.982 29.69C318.355 29.158 318.542 28.2947 318.542 27.1C318.542 26.624 318.5 26.1807 318.416 25.77C318.341 25.3593 318.22 25 318.052 24.692C317.884 24.384 317.665 24.146 317.394 23.978C317.123 23.8007 316.792 23.712 316.4 23.712C315.719 23.712 315.191 23.9873 314.818 24.538C314.445 25.0793 314.258 25.9333 314.258 27.1ZM328.34 23.908H325.484V32H323.566V23.908H320.696V22.2H328.34V23.908ZM328.484 27.1C328.484 25.4667 328.843 24.2113 329.562 23.334C330.281 22.4473 331.307 22.004 332.642 22.004C333.342 22.004 333.953 22.1253 334.476 22.368C334.999 22.6107 335.433 22.956 335.778 23.404C336.123 23.852 336.38 24.3887 336.548 25.014C336.716 25.6393 336.8 26.3347 336.8 27.1C336.8 28.7333 336.436 29.9933 335.708 30.88C334.989 31.7573 333.967 32.196 332.642 32.196C331.933 32.196 331.317 32.0747 330.794 31.832C330.271 31.5893 329.837 31.244 329.492 30.796C329.156 30.348 328.904 29.8113 328.736 29.186C328.568 28.5607 328.484 27.8653 328.484 27.1ZM330.5 27.1C330.5 27.5947 330.542 28.052 330.626 28.472C330.71 28.8827 330.836 29.2373 331.004 29.536C331.181 29.8347 331.405 30.068 331.676 30.236C331.947 30.404 332.269 30.488 332.642 30.488C333.323 30.488 333.851 30.222 334.224 29.69C334.597 29.158 334.784 28.2947 334.784 27.1C334.784 26.624 334.742 26.1807 334.658 25.77C334.583 25.3593 334.462 25 334.294 24.692C334.126 24.384 333.907 24.146 333.636 23.978C333.365 23.8007 333.034 23.712 332.642 23.712C331.961 23.712 331.433 23.9873 331.06 24.538C330.687 25.0793 330.5 25.9333 330.5 27.1ZM347.246 26.568L347.358 25.294H347.288L346.63 26.61L342.976 32H341.534V22.2H343.452V27.534L343.312 28.85H343.396L344.082 27.492L347.736 22.2H349.164V32H347.246V26.568ZM360.994 24.482C360.994 24.7247 360.961 24.9673 360.896 25.21C360.84 25.4527 360.742 25.6767 360.602 25.882C360.462 26.078 360.28 26.2553 360.056 26.414C359.832 26.5633 359.561 26.6753 359.244 26.75V26.834C359.524 26.8807 359.79 26.96 360.042 27.072C360.294 27.184 360.513 27.338 360.7 27.534C360.886 27.73 361.031 27.968 361.134 28.248C361.246 28.528 361.302 28.8593 361.302 29.242C361.302 29.746 361.194 30.1847 360.98 30.558C360.765 30.922 360.476 31.2207 360.112 31.454C359.757 31.6873 359.351 31.86 358.894 31.972C358.436 32.084 357.965 32.14 357.48 32.14C357.321 32.14 357.116 32.14 356.864 32.14C356.621 32.14 356.355 32.1307 356.066 32.112C355.786 32.1027 355.496 32.084 355.198 32.056C354.908 32.028 354.642 31.986 354.4 31.93V22.27C354.577 22.242 354.778 22.214 355.002 22.186C355.235 22.158 355.482 22.1347 355.744 22.116C356.005 22.0973 356.271 22.0833 356.542 22.074C356.822 22.0647 357.097 22.06 357.368 22.06C357.825 22.06 358.268 22.0973 358.698 22.172C359.136 22.2373 359.524 22.3587 359.86 22.536C360.205 22.7133 360.48 22.9607 360.686 23.278C360.891 23.5953 360.994 23.9967 360.994 24.482ZM357.494 30.558C357.727 30.558 357.951 30.53 358.166 30.474C358.39 30.418 358.586 30.334 358.754 30.222C358.922 30.1007 359.057 29.9513 359.16 29.774C359.262 29.5967 359.314 29.3867 359.314 29.144C359.314 28.836 359.253 28.5933 359.132 28.416C359.01 28.2387 358.852 28.1033 358.656 28.01C358.46 27.9073 358.24 27.842 357.998 27.814C357.755 27.786 357.512 27.772 357.27 27.772H356.248V30.474C356.294 30.4927 356.369 30.5067 356.472 30.516C356.574 30.5253 356.682 30.5347 356.794 30.544C356.915 30.544 357.036 30.5487 357.158 30.558C357.288 30.558 357.4 30.558 357.494 30.558ZM356.864 26.316C356.994 26.316 357.144 26.3113 357.312 26.302C357.489 26.2927 357.634 26.2787 357.746 26.26C358.1 26.148 358.404 25.98 358.656 25.756C358.917 25.532 359.048 25.238 359.048 24.874C359.048 24.6313 359.001 24.4307 358.908 24.272C358.814 24.1133 358.688 23.9873 358.53 23.894C358.38 23.8007 358.208 23.7353 358.012 23.698C357.816 23.6607 357.61 23.642 357.396 23.642C357.153 23.642 356.929 23.6467 356.724 23.656C356.518 23.6653 356.36 23.6793 356.248 23.698V26.316H356.864ZM368.383 26.568L368.495 25.294H368.425L367.767 26.61L364.113 32H362.671V22.2H364.589V27.534L364.449 28.85H364.533L365.219 27.492L368.873 22.2H370.301V32H368.383V26.568ZM380.591 33.75H379.233L379.023 32H372.723L372.513 33.75H371.155V30.292H372.191C372.257 30.1893 372.364 29.9607 372.513 29.606C372.663 29.2513 372.812 28.752 372.961 28.108C373.111 27.4547 373.237 26.6427 373.339 25.672C373.442 24.692 373.489 23.5347 373.479 22.2H379.345V30.292H380.591V33.75ZM377.427 30.292V23.908H375.257C375.201 25.5693 375.066 26.932 374.851 27.996C374.646 29.0507 374.436 29.816 374.221 30.292H377.427ZM381.675 22.2H387.485V23.908H383.593V26.19H387.135V27.898H383.593V30.292H387.555V32H381.675V22.2ZM388.681 27.1C388.681 25.4667 389.041 24.2113 389.759 23.334C390.478 22.4473 391.505 22.004 392.839 22.004C393.539 22.004 394.151 22.1253 394.673 22.368C395.196 22.6107 395.63 22.956 395.975 23.404C396.321 23.852 396.577 24.3887 396.745 25.014C396.913 25.6393 396.997 26.3347 396.997 27.1C396.997 28.7333 396.633 29.9933 395.905 30.88C395.187 31.7573 394.165 32.196 392.839 32.196C392.13 32.196 391.514 32.0747 390.991 31.832C390.469 31.5893 390.035 31.244 389.689 30.796C389.353 30.348 389.101 29.8113 388.933 29.186C388.765 28.5607 388.681 27.8653 388.681 27.1ZM390.697 27.1C390.697 27.5947 390.739 28.052 390.823 28.472C390.907 28.8827 391.033 29.2373 391.201 29.536C391.379 29.8347 391.603 30.068 391.873 30.236C392.144 30.404 392.466 30.488 392.839 30.488C393.521 30.488 394.048 30.222 394.421 29.69C394.795 29.158 394.981 28.2947 394.981 27.1C394.981 26.624 394.939 26.1807 394.855 25.77C394.781 25.3593 394.659 25 394.491 24.692C394.323 24.384 394.104 24.146 393.833 23.978C393.563 23.8007 393.231 23.712 392.839 23.712C392.158 23.712 391.631 23.9873 391.257 24.538C390.884 25.0793 390.697 25.9333 390.697 27.1Z" fill="black"/>
<path d="M669 0H531L590.51 65.68C595.73 71.441 604.27 71.441 609.49 65.68L669 0Z" fill="#81B3D3"/>
<path d="M567.687 0.457L599.835 38.336L631.855 0.686L567.687 0.457Z" fill="#23A9E1"/>
<path fill-rule="evenodd" clip-rule="evenodd" d="M609.42 14.719H592.1C591.819 14.5918 591.438 14.4492 591.012 14.2896C588.814 13.467 585.411 12.1934 588.347 10.252C589.817 9.31859 590.872 9.46836 591.869 9.60993C592.958 9.76457 593.979 9.90941 595.395 8.622C597.975 6.28128 601.67 9.9095 602.935 11.1519C603.196 11.4079 603.354 11.5626 603.377 11.543C604.627 10.5022 606.631 12.3043 608.111 13.6352C608.63 14.1022 609.085 14.5112 609.42 14.719ZM618.83 11.241L608.97 11.295C612.866 6.795 614.617 7.277 618.83 11.241Z" fill="white"/>
<path fill-rule="evenodd" clip-rule="evenodd" d="M567 0.001H600.055L633 0V15.04L600.056 54.245L599.836 54.52L567 14.583V0.001ZM571.011 1.153V3.06L569.407 1.154L571.011 1.153ZM628.622 1.154V3.588L630.702 1.154H628.622ZM579.467 13.081L579.377 12.998L580.196 13.9714L580.196 13.972L599.834 37.302L580.196 13.9714C582.851 9.42894 586.653 8.74921 590.743 13.664C591.397 14.4815 591.794 15.2248 592.112 15.8208C592.563 16.6649 592.856 17.2137 593.498 17.26C594.637 17.3414 595.197 16.5858 595.754 15.8344C596.196 15.2376 596.636 14.6434 597.363 14.473C598.784 14.139 599.439 14.4977 600.082 14.85C600.286 14.9618 600.488 15.0729 600.714 15.161C600.996 15.2714 601.26 15.3412 601.504 15.4058C602.131 15.5718 602.629 15.7035 602.977 16.401C603.093 16.633 603.19 16.8652 603.285 17.0919C603.705 18.0974 604.08 18.9953 605.879 19.294C608.427 19.718 610.582 18.7657 612.823 17.7747C614.43 17.0644 616.082 16.3342 617.956 16.077L620.471 13.132C620.366 13.022 618.004 10.592 614.339 8.182C610.91 5.927 605.611 3.233 599.833 3.205C594.042 3.173 588.817 5.858 585.45 8.117C581.907 10.4943 579.635 12.9034 579.476 13.0718L579.467 13.081ZM628.114 1.153H624.887V7.96L628.114 4.183V1.153ZM620.832 12.61V1.154H624.378V8.558L620.878 12.656C620.863 12.6402 620.848 12.6248 620.832 12.61ZM620.324 12.115V2.221L616.767 9.129C618.008 10.0564 619.196 11.0533 620.324 12.115ZM616.159 1.863V8.682C615.696 8.348 615.209 8.009 614.694 7.67C614.03 7.232 613.294 6.778 612.5 6.33L616.159 1.863ZM611.847 5.97V1.73L608.727 4.496C609.792 4.9323 610.834 5.42431 611.847 5.97ZM612.355 1.154H616.082L612.355 5.704V1.154ZM620.3 1.154H616.667L616.666 8.214L620.3 1.154ZM607.87 1.154H611.73L608.2 4.282C608.135 4.2568 608.068 4.23268 608.002 4.20857C607.957 4.19248 607.913 4.1764 607.869 4.16V1.154H607.87ZM607.361 3.974V1.571L604.261 3.087C605.312 3.31806 606.347 3.6143 607.361 3.974ZM603.158 1.613V2.873C602.436 2.75191 601.709 2.6678 600.979 2.621L603.158 1.613ZM598.64 2.616L596.392 1.574V2.869C597.128 2.746 597.878 2.659 598.64 2.616ZM592.272 1.571L595.337 3.069C594.277 3.298 593.254 3.597 592.271 3.944L592.272 1.571ZM592.578 1.154L595.882 2.771L595.883 1.154H592.578ZM599.448 2.429L596.694 1.154H599.448V2.429ZM602.938 1.154H600.057V2.488L602.938 1.154ZM603.816 1.154H607.056L603.816 2.738V1.154ZM587.895 1.155L591.405 4.265L591.764 4.13V1.155H587.895ZM587.787 1.738L590.88 4.479C589.823 4.91873 588.79 5.4158 587.787 5.968V1.738ZM587.115 6.346L583.475 1.866V8.756C584.638 7.87955 585.854 7.07473 587.115 6.346ZM579.31 2.224L582.896 9.198C581.635 10.1717 580.438 11.2241 579.31 12.349V2.224ZM579.332 1.154L582.966 8.224V1.154H579.332ZM587.278 5.739L583.552 1.154H587.278V5.739ZM571.52 3.664L574.747 7.497V1.154H571.52V3.664ZM575.255 1.154H578.8V12.314L575.254 8.102L575.255 1.154Z" fill="#491213"/>
<path d="M597.227 46.026L599.837 41.806L602.435 46.026L599.837 50.256L597.227 46.026Z" fill="#23A9E1"/>
<path fill-rule="evenodd" clip-rule="evenodd" d="M583.88 11.718C582.097 12.272 580.999 14.73 583.623 14.839H583.624C583.516 13.171 583.99 12.465 584.136 14.491C584.569 14.471 585.018 14.4591 585.475 14.4469C587.117 14.4034 588.856 14.3572 590.27 13.923C589.13 12.832 585.575 11.19 583.88 11.718ZM589.793 22.985C584.197 22.939 587.98 14.337 589.884 14.857C592.074 15.553 591.828 23.051 589.793 22.985ZM592.333 20.13C592.223 22.102 593.211 21.799 593.756 20.175V20.174C593.759 20.5328 593.72 20.8944 593.681 21.2468C593.579 22.1831 593.484 23.0555 594.215 23.644C595.539 24.713 598.08 23.247 598.911 22.152C597.314 21.532 599.259 17.765 600.457 17.191C599.225 19.772 597.805 23.617 601.025 23.617C599.393 23.617 602.327 16.871 602.343 16.925C602.157 16.3081 601.694 16.2415 601.142 16.162C600.733 16.1032 600.275 16.0372 599.843 15.735C598.261 14.6278 597.434 15.5809 596.631 16.507C596.281 16.9108 595.935 17.3095 595.533 17.53C595.053 17.7928 594.583 17.9267 594.157 18.048C593.171 18.3288 592.421 18.5422 592.333 20.13ZM605.218 30.556C601.785 28.536 602.654 27.033 605.448 25.631C605.808 25.4501 606.28 25.1532 606.806 24.8216C608.416 23.8072 610.542 22.4681 611.581 23.132L605.218 30.556ZM601.674 33.0045L601.674 33.0045C599.967 32.8993 598.18 32.7893 596.622 33.128C597.829 33.43 600.773 34.293 598.032 35.022C599.015 36.429 600.61 36.339 601.656 35.104C601.4 34.9781 601.215 34.8349 601.031 34.6928L601.031 34.6928C600.91 34.5989 600.789 34.5055 600.649 34.418C601.734 34.222 602.749 33.596 602.884 33.073C602.488 33.0546 602.083 33.0297 601.674 33.0045ZM601.373 31.499C602.242 30.659 603.186 30.703 604.119 31.499H604.118C603.644 32.881 595.059 32.393 593.994 29.779C594.518 29.8582 595.201 29.8662 595.943 29.8748C598.002 29.8989 600.517 29.9282 601.373 31.499ZM597.345 29.348C596.894 29.2083 596.136 29.1189 595.367 29.0283C593.466 28.8041 591.499 28.5722 593.957 27.554C595.022 27.113 600.55 27.617 597.345 29.348ZM599.257 26.318C598.78 25.241 599.622 23.958 600.997 24.89C602.196 25.703 600.445 26.907 599.257 26.318ZM596.421 26.409C594.156 27.088 591.148 25.625 594.791 24.889C597.052 24.433 599.457 25.395 596.421 26.409Z" fill="#DC6243"/>
<path d="M602.774 25.832C599.866 22.845 607.116 23.12 608.284 22.069C609.134 22.353 615.274 16.692 616.769 17.044C615.695 18.304 613.381 22.326 611.722 22.326C610.447 22.326 609.157 22.136 608.17 23.044C606.726 24.374 604.333 25.05 602.774 25.832Z" fill="#F49774"/>
<path d="M603.727 22.18C602.135 23.036 600.629 19.644 603.378 19.974C605.204 20.194 607.054 19.82 608.798 20.121C607.547 21.608 605.742 22.427 603.727 22.18Z" fill="#F4B1A4"/>
<path fill-rule="evenodd" clip-rule="evenodd" d="M570.265 14.483C570.626 15.702 571.849 16.149 572.996 15.809C573.032 15.8493 573.055 15.9116 573.076 15.9699L573.076 15.9699C573.086 15.997 573.096 16.0232 573.106 16.046C573.006 16.0843 572.822 16.1636 572.602 16.2585L572.602 16.2585L572.602 16.2585L572.602 16.2585L572.602 16.2585C571.99 16.5225 571.098 16.9066 570.973 16.861C570.756 16.4283 570.415 16.1086 570.071 15.7869C569.832 15.5628 569.592 15.3378 569.392 15.073C568.826 14.325 568.495 13.422 568.584 12.476C568.726 10.731 570.482 8.807 572.346 9.071C573.266 9.204 574.034 9.858 574.606 10.554C574.768 10.7433 574.91 10.9418 575.049 11.1377C575.346 11.5544 575.634 11.9591 576.099 12.238C575.541 12.95 574.983 13.66 574.423 14.371C574.093 14.2249 574.193 13.997 574.303 13.7479C574.334 13.6781 574.365 13.6067 574.388 13.535C574.551 13.018 574.673 12.43 574.449 11.91C573.939 10.736 572.544 10.696 571.609 11.366C570.663 12.044 569.912 13.292 570.265 14.483ZM578.69 16.404C578.807 16.3788 578.896 16.4207 578.974 16.458C579.089 16.5123 579.183 16.5567 579.312 16.368L577.722 14.474C577.481 14.187 577.176 13.879 577.263 14.486C577.321 14.895 573.294 18.163 573.048 18.264C572.913 18.3197 572.803 18.2758 572.702 18.2359C572.571 18.1841 572.457 18.1388 572.328 18.327C572.529 18.5655 572.729 18.8042 572.93 19.0429L572.93 19.0433L572.932 19.0451L572.932 19.0457L572.933 19.0467L572.933 19.0468L572.933 19.0469L572.933 19.0471L572.934 19.0472L572.934 19.0473L572.934 19.0475L572.934 19.0476L572.934 19.0481L572.934 19.0483L572.935 19.0484L572.935 19.0485L572.935 19.0487L572.935 19.0488C573.207 19.3726 573.479 19.6965 573.752 20.02C573.804 20.0812 573.854 20.1441 573.904 20.2072C574.011 20.3401 574.118 20.4737 574.237 20.593C574.426 20.7818 574.39 20.3246 574.382 20.2273L574.382 20.2273L574.382 20.2272C574.381 20.2112 574.381 20.2049 574.382 20.213C574.329 19.9168 574.641 19.6601 574.86 19.4796L574.86 19.4796C574.888 19.4572 574.914 19.436 574.937 19.416C575.941 18.532 578.442 16.437 578.69 16.404ZM582.113 20.935C582.446 21.336 582.691 21.769 582.636 22.309C582.623 22.4367 582.549 22.5942 582.473 22.7539C582.327 23.063 582.176 23.3804 582.461 23.507L583.916 21.667C583.526 21.569 580.434 17.871 580.384 17.466L578.333 18.592C578.403 18.8751 578.746 18.7859 579.076 18.7002C579.246 18.656 579.413 18.6128 579.536 18.622C580.074 18.66 580.462 18.985 580.804 19.369C580.698 19.4576 580.579 19.5584 580.448 19.6684L580.444 19.672L580.443 19.6724L580.443 19.6725L580.443 19.6725C579.185 20.7305 576.927 22.6306 576.666 22.674C576.618 22.6816 576.525 22.6421 576.422 22.5982C576.212 22.5083 575.957 22.3999 575.952 22.637C575.949 22.7623 576.251 23.0609 576.452 23.2601L576.452 23.2601L576.452 23.2602C576.524 23.3312 576.583 23.3896 576.611 23.423L578.058 25.145C578.278 25.0447 578.235 24.9115 578.185 24.757C578.144 24.6297 578.098 24.4879 578.191 24.338C578.31 24.145 580.246 22.512 581.409 21.5306L581.409 21.5305L581.409 21.5305L581.41 21.53C581.711 21.2757 581.961 21.0653 582.113 20.935ZM595.962 36.5156L595.962 36.5156L595.961 36.5154C595.767 36.2637 595.617 36.0697 595.539 35.977L595.326 35.724C595.319 35.714 595.141 35.869 595.166 35.848C595.113 35.8928 595.13 35.9795 595.149 36.0783C595.171 36.1867 595.195 36.3097 595.132 36.408C594.617 37.214 591.394 39.644 591.227 39.76C591.053 39.8807 590.871 39.8608 590.705 39.8428C590.528 39.8235 590.369 39.8062 590.26 39.966C590.399 40.131 590.615 40.4017 590.855 40.7012L590.855 40.7012C591.419 41.4073 592.111 42.2734 592.22 42.291C592.437 42.3259 592.398 42.0542 592.368 41.8463C592.355 41.7561 592.344 41.678 592.356 41.642C592.431 41.4165 593.875 40.2125 594.542 39.6566L594.66 39.558C594.846 39.4021 595.039 39.7121 595.173 39.9261L595.173 39.9261C595.196 39.9633 595.218 39.9976 595.237 40.026C595.449 40.341 595.544 40.676 595.43 41.045C595.408 41.1163 595.358 41.198 595.306 41.2819C595.184 41.4802 595.055 41.691 595.268 41.807C595.439 41.6072 595.741 41.2542 596.045 40.8996L596.052 40.8919L596.055 40.8882L596.06 40.8827C596.466 40.4087 596.871 39.9361 596.964 39.827C597.085 39.6869 596.828 39.7409 596.71 39.7657L596.71 39.7657L596.71 39.7657C596.668 39.7745 596.643 39.7797 596.66 39.771C596.42 39.895 596.194 39.924 595.97 39.753C595.907 39.706 595.263 39.051 595.327 38.996C595.393 38.941 595.462 38.8775 595.533 38.8114C595.769 38.595 596.034 38.3502 596.311 38.282C596.871 38.144 597.338 39.266 597.421 39.664C597.499 40.039 597.488 40.434 597.371 40.8C597.351 40.8631 597.321 40.9229 597.293 40.9797C597.208 41.1489 597.137 41.2902 597.383 41.404L598.766 39.508C598.676 39.5126 598.586 39.4907 598.508 39.445C597.924 39.0551 596.657 37.416 595.962 36.5156ZM587.304 31.317C587.859 30.8446 588.553 30.5662 589.281 30.524C590.439 30.458 591.613 30.988 592.371 31.998C593.483 33.482 593.301 35.559 591.871 36.764C590.186 37.965 588.104 37.772 586.812 36.07C585.688 34.592 585.874 32.52 587.304 31.317ZM590.471 31.91C591.42 31.802 591.974 32.709 591.57 33.678C591.15 34.658 590.14 35.667 589.146 36.058C587.966 36.523 587.135 35.521 587.615 34.401C588.037 33.417 589.045 32.418 590.041 32.021C590.191 31.962 590.335 31.926 590.471 31.911V31.91ZM587.974 27.3709C587.882 27.3321 587.786 27.292 587.688 27.28V27.279C586.992 27.1958 586.209 27.3412 585.47 27.4784H585.47L585.47 27.4784C585.188 27.5309 584.911 27.5822 584.649 27.619C584.002 27.71 582.477 29.195 582.379 29.475C582.369 29.5138 582.39 29.6015 582.414 29.7024C582.469 29.929 582.54 30.2225 582.305 30.181C582.226 30.1662 582.036 29.9081 581.909 29.7361L581.909 29.736L581.909 29.7359C581.865 29.6756 581.828 29.6259 581.807 29.601L580.19 27.681C580.333 27.4781 580.454 27.5471 580.594 27.6268C580.705 27.69 580.827 27.76 580.982 27.706C581.248 27.6126 582.16 26.8353 582.592 26.4675L582.592 26.4671L582.594 26.4652C582.651 26.4168 582.7 26.3755 582.737 26.344C583.291 25.8782 583.778 24.171 583.937 23.6127C583.962 23.5238 583.979 23.464 583.987 23.443C584.048 23.273 584.069 22.298 584.045 22.318C584.256 22.1443 584.4 22.3575 584.546 22.5735C584.59 22.6386 584.635 22.7039 584.681 22.759L586.461 24.871C586.329 25.0609 586.207 25.0053 586.072 24.944C585.943 24.8852 585.802 24.821 585.629 24.963C585.47 25.0939 585.089 26.1921 584.916 26.6903L584.877 26.803C584.915 26.7962 584.964 26.788 585.02 26.7784L585.02 26.7784C585.552 26.6876 586.796 26.4755 586.939 26.225C587.006 26.1066 586.967 26.0054 586.932 25.9146C586.885 25.7952 586.846 25.6938 587.065 25.595L588.512 27.307C588.36 27.5318 588.175 27.4545 587.974 27.3709ZM611.927 34.049C612.051 34.47 612.121 34.914 612.067 35.354C611.997 35.92 611.431 37.252 610.656 36.873C610.122 36.6107 609.634 36.1625 609.168 35.7336C608.971 35.5525 608.777 35.3748 608.586 35.216C609.106 34.608 609.564 34.081 610.439 34.376C610.679 34.456 610.885 34.352 610.633 34.206C610.583 34.1769 610.479 34.1129 610.343 34.0289C609.762 33.6707 608.593 32.9503 608.516 33.037C608.436 33.1288 608.5 33.2537 608.574 33.3995C608.664 33.5745 608.768 33.7796 608.659 33.994C608.544 34.2189 608.369 34.4198 608.199 34.6153C608.15 34.6718 608.101 34.7279 608.054 34.784C607.986 34.7264 607.911 34.6683 607.834 34.609L607.834 34.6089L607.834 34.6087C607.387 34.2624 606.888 33.8757 607.369 33.32C607.721 32.892 608.18 32.56 608.73 32.45C608.859 32.4236 609.046 32.447 609.237 32.471C609.591 32.5153 609.963 32.562 610.032 32.304C609.609 32.1 609.186 31.8971 608.763 31.6942C608.481 31.5589 608.199 31.4236 607.917 31.288C608.009 31.7056 606.552 33.3469 605.711 34.2935C605.505 34.5255 605.336 34.7157 605.236 34.836C605.217 34.859 605.178 34.8971 605.132 34.943C605.001 35.0721 604.808 35.263 604.805 35.353C604.8 35.6048 605.134 35.4514 605.216 35.4142L605.216 35.4142C605.224 35.4104 605.23 35.4078 605.232 35.407C605.547 35.291 609.656 38.724 609.758 38.959C609.789 39.045 609.758 39.1331 609.731 39.2128C609.7 39.3017 609.673 39.3802 609.738 39.434C609.738 39.4337 609.738 39.4338 609.738 39.4344L609.741 39.4366C609.762 39.4563 609.888 39.5719 609.903 39.554C609.945 39.5031 610.056 39.3602 610.214 39.1569L610.214 39.1569L610.214 39.1568C610.996 38.1472 612.932 35.6478 613.392 35.518C612.875 34.7304 612.363 33.9397 611.855 33.146C611.568 33.2718 611.704 33.5544 611.825 33.8089C611.866 33.8945 611.906 33.9768 611.927 34.049ZM604.211 39.2409C604.932 38.7948 606.773 37.6562 607.927 38.401C609.059 39.343 608.812 40.881 608.059 41.981C607.698 42.506 607.242 42.945 606.765 43.364L606.734 43.3902C606.384 43.6836 606.125 43.9001 606.059 44.379L603.799 42.732C603.912 42.4365 604.137 42.5631 604.36 42.688C604.441 42.7339 604.523 42.7796 604.598 42.804C604.989 42.933 605.414 42.969 605.814 42.863C606.498 42.681 607.191 42.04 607.374 41.344C607.602 40.479 606.753 40.217 606.107 40.52C605.796 40.6659 605.499 40.8614 605.207 41.0541C605.09 41.131 604.974 41.2073 604.858 41.28C604.205 41.687 603.437 41.995 602.7 41.611C602.052 41.275 601.611 40.621 601.611 39.885C601.611 39.088 602.064 38.39 602.598 37.835C602.722 37.7064 602.872 37.5799 603.027 37.4497C603.43 37.1102 603.863 36.7451 603.946 36.25C604.501 36.626 605.056 37.001 605.613 37.376C605.705 37.4389 605.689 37.46 605.638 37.5256L605.638 37.5257C605.623 37.5456 605.605 37.5695 605.585 37.6C605.538 37.6738 605.215 37.6375 604.951 37.6079L604.951 37.6079C604.817 37.5929 604.699 37.5796 604.639 37.583C604.043 37.619 603.443 37.88 603.139 38.42C602.789 39.042 603.276 39.714 603.951 39.395C604 39.3714 604.09 39.316 604.211 39.2409ZM625.544 10.336C625.509 10.352 625.479 10.3768 625.456 10.408L624.666 11.358L623.852 12.34C623.824 12.3741 623.796 12.405 623.769 12.4337L623.769 12.4338C623.638 12.577 623.557 12.6646 623.827 12.807C624.37 12.535 627.345 17.575 627.079 18.299C626.609 18.543 622.589 15.016 622.481 14.783C622.472 14.7561 622.482 14.6911 622.494 14.613C622.525 14.4159 622.57 14.1349 622.345 14.17C622.235 14.187 622.022 14.4988 621.881 14.7056L621.881 14.7057L621.881 14.7057L621.881 14.706C621.832 14.7782 621.791 14.8375 621.767 14.867L621.19 15.562C621.321 15.7528 621.416 15.7077 621.535 15.6515C621.613 15.615 621.7 15.5738 621.813 15.59C622.041 15.6358 622.857 16.3229 623.19 16.6039L623.19 16.6039L623.191 16.604L623.191 16.604L623.269 16.67C623.112 16.6757 622.867 16.6871 622.603 16.6994C622.074 16.724 621.472 16.752 621.364 16.744C621.028 16.7858 620.987 16.6382 620.94 16.4717C620.906 16.3477 620.868 16.2133 620.704 16.139L619.226 17.934L618.366 18.977C618.362 18.982 618.358 18.986 618.355 18.9895C618.348 18.9982 618.344 19.0025 618.344 19.0063C618.345 19.0101 618.349 19.0134 618.359 19.0198C618.367 19.0258 618.38 19.0346 618.397 19.049C618.427 19.0737 618.45 19.0937 618.468 19.1094C618.508 19.1439 618.524 19.1581 618.541 19.1581C618.552 19.158 618.564 19.151 618.583 19.1389C618.614 19.1199 618.665 19.0886 618.767 19.053C619.095 18.938 623.023 22.253 623.165 22.422C623.277 22.5552 623.266 22.6986 623.256 22.8303C623.244 22.9874 623.233 23.128 623.433 23.215L624.601 21.797C624.614 21.7817 624.625 21.7699 624.634 21.7602C624.669 21.7244 624.675 21.7174 624.614 21.667C624.461 21.5411 624.383 21.5963 624.286 21.6646C624.207 21.72 624.117 21.784 623.964 21.767C623.665 21.7177 621.746 20.1176 620.604 19.165L620.603 19.164L620.599 19.1604L620.598 19.1592L620.591 19.1541C620.419 19.01 620.264 18.881 620.136 18.775L625.458 18.578C625.653 18.571 626.198 19.159 626.153 19.368C626.137 19.4427 626.103 19.5055 626.072 19.5611C626.003 19.6871 625.955 19.7761 626.187 19.883C626.31 19.7346 626.437 19.5866 626.563 19.4383L626.563 19.4382L626.563 19.4382L626.563 19.4381L626.563 19.438L626.563 19.4379C626.755 19.2125 626.948 18.9865 627.132 18.758L627.28 18.574C627.338 18.5279 627.384 18.469 627.415 18.402L627.525 18.265C627.552 18.2347 627.584 18.1982 627.62 18.1568L627.623 18.1541L627.623 18.1539C627.967 17.7646 628.683 16.9528 628.587 16.869C628.447 16.7477 628.341 16.8053 628.226 16.8671C628.096 16.9377 627.955 17.0138 627.743 16.834C627.538 16.6867 627.05 15.8484 626.857 15.5155L626.808 15.432C626.655 15.1715 627.089 14.9117 627.348 14.7565C627.379 14.7378 627.408 14.7205 627.433 14.705C627.937 14.392 629.54 13.938 629.693 14.932C629.704 15.004 629.672 15.0803 629.643 15.1518C629.604 15.2461 629.569 15.3321 629.638 15.389C629.643 15.3935 629.651 15.402 629.661 15.4123C629.704 15.4564 629.779 15.5353 629.814 15.494L631.956 12.918C631.936 12.9011 631.915 12.8799 631.893 12.8581C631.847 12.8115 631.797 12.7617 631.746 12.742C631.272 13.215 626.28 11.222 625.916 10.947C625.84 10.9167 625.793 10.7721 625.747 10.6306C625.694 10.4644 625.641 10.3025 625.544 10.336ZM627.606 13.849C626.845 13.527 626.083 13.207 625.319 12.889L626.335 14.637C626.524 14.4503 626.732 14.2843 626.956 14.142H626.958C627.159 14.015 627.376 13.913 627.606 13.849ZM618.731 20.642C617.624 20.566 616.501 21.052 615.708 21.959C614.473 23.459 614.596 25.637 616.101 26.904C617.619 28.154 619.781 27.836 621.017 26.354C622.249 24.858 622.164 22.674 620.632 21.42C620.097 20.9654 619.432 20.6928 618.732 20.642H618.731ZM619.024 22.904C618.592 22.615 617.904 22.239 617.282 22.201C616.909 22.178 616.559 22.278 616.302 22.592C615.487 23.588 616.764 24.718 617.509 25.256C618.253 25.793 619.633 26.57 620.433 25.73C620.439 25.7245 620.445 25.7185 620.451 25.712C620.584 25.545 620.549 25.584 620.501 25.642C621.238 24.591 619.804 23.425 619.024 22.904ZM614.155 26.481C612.941 26.414 611.752 26.977 610.856 28.057C610.332 28.6859 609.81 29.3161 609.288 29.9461L608.934 30.373C609.057 30.5528 609.192 30.515 609.343 30.4729C609.47 30.4372 609.609 30.3984 609.761 30.486C610.044 30.649 613.814 33.798 613.876 33.971C613.922 34.1012 613.897 34.1856 613.874 34.2573C613.846 34.3491 613.825 34.4199 613.97 34.539C614.081 34.632 616.914 31.134 617.173 30.519C617.621 29.38 617.264 28.132 616.353 27.344C616.426 27.404 616.53 27.489 616.311 27.307C615.621 26.789 614.884 26.52 614.155 26.48V26.481ZM613.368 28.098C613.286 28.077 613.197 28.064 613.102 28.061V28.06C612.441 28.035 611.52 28.418 611.045 28.939C610.886 29.114 614.867 32.338 615.065 32.148C615.248 31.9726 615.321 31.9091 615.362 31.8742C615.411 31.8321 615.412 31.8315 615.497 31.726C616.752 30.213 614.79 28.461 613.368 28.098Z" fill="white"/>
<path d="M819.393 27.814H818.889V32H816.971V22.2H818.889V26.54L819.337 26.344L822.039 22.2H824.223L821.367 26.316L820.611 26.848L821.395 27.394L824.657 32H822.291L819.393 27.814ZM830.25 29.83H827.24L826.498 32H824.58L828.108 22.13H829.522L833.05 32H831.034L830.25 29.83ZM827.73 28.29H829.83L829.102 26.106L828.808 24.566H828.738L828.444 26.12L827.73 28.29ZM833.897 22.298C834.289 22.2233 834.718 22.1673 835.185 22.13C835.661 22.0833 836.132 22.06 836.599 22.06C837.084 22.06 837.569 22.102 838.055 22.186C838.549 22.2607 838.993 22.4193 839.385 22.662C839.777 22.8953 840.094 23.2267 840.337 23.656C840.589 24.076 840.715 24.6267 840.715 25.308C840.715 25.924 840.607 26.4467 840.393 26.876C840.178 27.296 839.893 27.6413 839.539 27.912C839.184 28.1827 838.778 28.3787 838.321 28.5C837.873 28.6213 837.406 28.682 836.921 28.682C836.874 28.682 836.799 28.682 836.697 28.682C836.594 28.682 836.487 28.682 836.375 28.682C836.263 28.6727 836.151 28.6633 836.039 28.654C835.936 28.6447 835.861 28.6353 835.815 28.626V32H833.897V22.298ZM836.753 23.712C836.566 23.712 836.389 23.7213 836.221 23.74C836.053 23.7493 835.917 23.7633 835.815 23.782V26.96C835.852 26.9693 835.908 26.9787 835.983 26.988C836.057 26.9973 836.137 27.0067 836.221 27.016C836.305 27.016 836.384 27.016 836.459 27.016C836.543 27.016 836.603 27.016 836.641 27.016C836.893 27.016 837.14 26.9927 837.383 26.946C837.635 26.8993 837.859 26.8153 838.055 26.694C838.251 26.5633 838.405 26.386 838.517 26.162C838.638 25.938 838.699 25.644 838.699 25.28C838.699 24.972 838.643 24.72 838.531 24.524C838.419 24.3187 838.269 24.1553 838.083 24.034C837.905 23.9127 837.7 23.8287 837.467 23.782C837.233 23.7353 836.995 23.712 836.753 23.712ZM848.757 23.908H845.901V32H843.983V23.908H841.113V22.2H848.757V23.908ZM853.492 29.83H850.482L849.74 32H847.822L851.35 22.13H852.764L856.292 32H854.276L853.492 29.83ZM850.972 28.29H853.072L852.344 26.106L852.05 24.566H851.98L851.686 26.12L850.972 28.29ZM860.065 32V22.2H861.983V30.292H864.293V22.2H866.211V30.292H868.521V22.2H870.439V32H860.065ZM879.081 23.908H876.225V32H874.307V23.908H871.437V22.2H879.081V23.908ZM883.816 29.83H880.806L880.064 32H878.146L881.674 22.13H883.088L886.616 32H884.6L883.816 29.83ZM881.296 28.29H883.396L882.668 26.106L882.374 24.566H882.304L882.01 26.12L881.296 28.29ZM893.327 23.908H890.471V32H888.553V23.908H885.683V22.2H893.327V23.908ZM898.063 29.83H895.053L894.311 32H892.393L895.921 22.13H897.335L900.863 32H898.847L898.063 29.83ZM895.543 28.29H897.643L896.915 26.106L896.621 24.566H896.551L896.257 26.12L895.543 28.29Z" fill="black"/>
<path d="M1054.97 23.908H1051.19V32H1049.27V22.2H1054.97V23.908ZM1055.08 27.1C1055.08 25.4667 1055.44 24.2113 1056.15 23.334C1056.87 22.4473 1057.9 22.004 1059.23 22.004C1059.93 22.004 1060.55 22.1253 1061.07 22.368C1061.59 22.6107 1062.03 22.956 1062.37 23.404C1062.72 23.852 1062.97 24.3887 1063.14 25.014C1063.31 25.6393 1063.39 26.3347 1063.39 27.1C1063.39 28.7333 1063.03 29.9933 1062.3 30.88C1061.58 31.7573 1060.56 32.196 1059.23 32.196C1058.53 32.196 1057.91 32.0747 1057.39 31.832C1056.86 31.5893 1056.43 31.244 1056.08 30.796C1055.75 30.348 1055.5 29.8113 1055.33 29.186C1055.16 28.5607 1055.08 27.8653 1055.08 27.1ZM1057.09 27.1C1057.09 27.5947 1057.13 28.052 1057.22 28.472C1057.3 28.8827 1057.43 29.2373 1057.6 29.536C1057.77 29.8347 1058 30.068 1058.27 30.236C1058.54 30.404 1058.86 30.488 1059.23 30.488C1059.92 30.488 1060.44 30.222 1060.82 29.69C1061.19 29.158 1061.38 28.2947 1061.38 27.1C1061.38 26.624 1061.33 26.1807 1061.25 25.77C1061.18 25.3593 1061.05 25 1060.89 24.692C1060.72 24.384 1060.5 24.146 1060.23 23.978C1059.96 23.8007 1059.63 23.712 1059.23 23.712C1058.55 23.712 1058.03 23.9873 1057.65 24.538C1057.28 25.0793 1057.09 25.9333 1057.09 27.1ZM1071.4 31.594C1071.1 31.8087 1070.72 31.9627 1070.25 32.056C1069.79 32.1493 1069.32 32.196 1068.84 32.196C1068.25 32.196 1067.69 32.1073 1067.16 31.93C1066.64 31.7433 1066.17 31.4493 1065.77 31.048C1065.37 30.6373 1065.05 30.11 1064.81 29.466C1064.57 28.8127 1064.46 28.024 1064.46 27.1C1064.46 26.1387 1064.59 25.336 1064.85 24.692C1065.12 24.0387 1065.46 23.516 1065.88 23.124C1066.31 22.7227 1066.79 22.438 1067.31 22.27C1067.83 22.0927 1068.36 22.004 1068.88 22.004C1069.44 22.004 1069.91 22.0413 1070.29 22.116C1070.69 22.1907 1071.01 22.2793 1071.26 22.382L1070.88 24.006C1070.67 23.9033 1070.41 23.8287 1070.11 23.782C1069.82 23.7353 1069.47 23.712 1069.05 23.712C1068.27 23.712 1067.65 23.9873 1067.17 24.538C1066.71 25.0887 1066.47 25.9427 1066.47 27.1C1066.47 27.604 1066.53 28.066 1066.64 28.486C1066.75 28.8967 1066.92 29.2513 1067.14 29.55C1067.38 29.8393 1067.66 30.068 1068 30.236C1068.34 30.3947 1068.74 30.474 1069.19 30.474C1069.61 30.474 1069.96 30.432 1070.25 30.348C1070.54 30.264 1070.79 30.1567 1071.01 30.026L1071.4 31.594ZM1078.93 23.908H1076.07V32H1074.15V23.908H1071.28V22.2H1078.93V23.908ZM1085.64 26.568L1085.75 25.294H1085.68L1085.02 26.61L1081.37 32H1079.93V22.2H1081.84V27.534L1081.7 28.85H1081.79L1082.47 27.492L1086.13 22.2H1087.56V32H1085.64V26.568ZM1094.75 27.898H1091.17V32H1089.25V22.2H1091.17V26.19H1094.75V22.2H1096.67V32H1094.75V27.898ZM1104.08 26.568L1104.19 25.294H1104.12L1103.47 26.61L1099.81 32H1098.37V22.2H1100.29V27.534L1100.15 28.85H1100.23L1100.92 27.492L1104.57 22.2H1106V32H1104.08V26.568ZM1116.16 33.75H1114.81L1114.6 32H1107.69V22.2H1109.61V30.292H1112.99V22.2H1114.9V30.292H1116.16V33.75ZM1124.8 22.2H1126.71V32H1124.8V22.2ZM1117.24 22.2H1119.15V25.714C1119.26 25.6953 1119.42 25.672 1119.64 25.644C1119.87 25.616 1120.09 25.602 1120.3 25.602C1120.77 25.602 1121.21 25.6487 1121.63 25.742C1122.06 25.8353 1122.44 26.0033 1122.75 26.246C1123.07 26.4793 1123.32 26.8013 1123.51 27.212C1123.7 27.6133 1123.79 28.122 1123.79 28.738C1123.79 29.8767 1123.46 30.7307 1122.79 31.3C1122.13 31.86 1121.15 32.14 1119.84 32.14C1119.71 32.14 1119.54 32.1353 1119.34 32.126C1119.13 32.126 1118.91 32.1167 1118.66 32.098C1118.43 32.0793 1118.19 32.056 1117.94 32.028C1117.68 32 1117.45 31.958 1117.24 31.902V22.2ZM1119.98 30.432C1120.51 30.432 1120.94 30.3107 1121.27 30.068C1121.6 29.816 1121.77 29.4007 1121.77 28.822C1121.77 28.514 1121.73 28.262 1121.63 28.066C1121.54 27.87 1121.41 27.716 1121.25 27.604C1121.1 27.492 1120.91 27.4173 1120.69 27.38C1120.48 27.3333 1120.25 27.31 1119.99 27.31C1119.86 27.31 1119.71 27.324 1119.53 27.352C1119.36 27.3707 1119.23 27.394 1119.15 27.422V30.348C1119.26 30.376 1119.38 30.3993 1119.52 30.418C1119.67 30.4273 1119.82 30.432 1119.98 30.432Z" fill="black"/>
</svg>
